<mxfile host="app.diagrams.net" modified="2021-11-07T02:36:52.255Z" agent="5.0 (X11; Linux x86_64) AppleWebKit/537.36 (KHTML, like Gecko) Chrome/95.0.4638.69 Safari/537.36" etag="7DuJaCW-kXu8goPjCcQQ" version="15.6.8" type="github">
  <diagram id="ReuXtYp8yDRIUP3gpg5s" name="Page-1">
    <mxGraphModel dx="1422" dy="1894" grid="1" gridSize="10" guides="1" tooltips="1" connect="1" arrows="1" fold="1" page="1" pageScale="1" pageWidth="827" pageHeight="1169" math="0" shadow="0">
      <root>
        <mxCell id="0" />
        <mxCell id="1" parent="0" />
        <mxCell id="NyFvF2G4yUZ6XenXAswd-2" value="" style="shape=table;startSize=0;container=1;collapsible=0;childLayout=tableLayout;fillColor=#FAD9D5;strokeColor=#D0CEE2;fontColor=#1A1A1A;" parent="1" vertex="1">
          <mxGeometry x="846.94" y="-20" width="120" height="40" as="geometry" />
        </mxCell>
        <mxCell id="NyFvF2G4yUZ6XenXAswd-3" value="" style="shape=partialRectangle;collapsible=0;dropTarget=0;pointerEvents=0;fillColor=none;top=0;left=0;bottom=0;right=0;points=[[0,0.5],[1,0.5]];portConstraint=eastwest;strokeColor=#D0CEE2;fontColor=#1A1A1A;" parent="NyFvF2G4yUZ6XenXAswd-2" vertex="1">
          <mxGeometry width="120" height="40" as="geometry" />
        </mxCell>
        <mxCell id="NyFvF2G4yUZ6XenXAswd-4" value="*prev" style="shape=partialRectangle;html=1;whiteSpace=wrap;connectable=0;overflow=hidden;fillColor=none;top=0;left=0;bottom=0;right=0;strokeColor=#D0CEE2;fontColor=#1A1A1A;" parent="NyFvF2G4yUZ6XenXAswd-3" vertex="1">
          <mxGeometry width="40" height="40" as="geometry">
            <mxRectangle width="40" height="40" as="alternateBounds" />
          </mxGeometry>
        </mxCell>
        <mxCell id="NyFvF2G4yUZ6XenXAswd-5" value="&lt;font color=&quot;#ff0000&quot;&gt;list&lt;/font&gt;" style="shape=partialRectangle;html=1;whiteSpace=wrap;connectable=0;overflow=hidden;fillColor=none;top=0;left=0;bottom=0;right=0;strokeColor=#D0CEE2;fontColor=#1A1A1A;" parent="NyFvF2G4yUZ6XenXAswd-3" vertex="1">
          <mxGeometry x="40" width="40" height="40" as="geometry">
            <mxRectangle width="40" height="40" as="alternateBounds" />
          </mxGeometry>
        </mxCell>
        <mxCell id="NyFvF2G4yUZ6XenXAswd-6" value="*next" style="shape=partialRectangle;html=1;whiteSpace=wrap;connectable=0;overflow=hidden;fillColor=none;top=0;left=0;bottom=0;right=0;strokeColor=#D0CEE2;fontColor=#1A1A1A;" parent="NyFvF2G4yUZ6XenXAswd-3" vertex="1">
          <mxGeometry x="80" width="40" height="40" as="geometry">
            <mxRectangle width="40" height="40" as="alternateBounds" />
          </mxGeometry>
        </mxCell>
        <mxCell id="NyFvF2G4yUZ6XenXAswd-7" style="edgeStyle=orthogonalEdgeStyle;rounded=0;orthogonalLoop=1;jettySize=auto;html=1;entryX=-0.022;entryY=0.234;entryDx=0;entryDy=0;entryPerimeter=0;strokeColor=#09555B;fontColor=#1A1A1A;" parent="NyFvF2G4yUZ6XenXAswd-2" source="NyFvF2G4yUZ6XenXAswd-3" target="NyFvF2G4yUZ6XenXAswd-3" edge="1">
          <mxGeometry relative="1" as="geometry">
            <mxPoint x="-10" y="9.999999999999886" as="targetPoint" />
            <Array as="points">
              <mxPoint x="140" y="10" />
              <mxPoint x="140" y="-20" />
              <mxPoint x="-20" y="-20" />
              <mxPoint x="-20" y="9" />
            </Array>
          </mxGeometry>
        </mxCell>
        <mxCell id="NyFvF2G4yUZ6XenXAswd-8" style="edgeStyle=orthogonalEdgeStyle;rounded=0;orthogonalLoop=1;jettySize=auto;html=1;strokeColor=#09555B;fontColor=#1A1A1A;" parent="NyFvF2G4yUZ6XenXAswd-2" source="NyFvF2G4yUZ6XenXAswd-3" target="NyFvF2G4yUZ6XenXAswd-3" edge="1">
          <mxGeometry relative="1" as="geometry">
            <Array as="points">
              <mxPoint x="-20" y="30" />
              <mxPoint x="-20" y="60" />
              <mxPoint x="140" y="60" />
              <mxPoint x="140" y="30" />
            </Array>
            <mxPoint y="30" as="sourcePoint" />
          </mxGeometry>
        </mxCell>
        <mxCell id="NyFvF2G4yUZ6XenXAswd-11" value="" style="shape=table;startSize=0;container=1;collapsible=0;childLayout=tableLayout;fillColor=#FAD9D5;strokeColor=#D0CEE2;fontColor=#1A1A1A;" parent="1" vertex="1">
          <mxGeometry x="840" y="280" width="120" height="40" as="geometry" />
        </mxCell>
        <mxCell id="NyFvF2G4yUZ6XenXAswd-12" value="" style="shape=partialRectangle;collapsible=0;dropTarget=0;pointerEvents=0;fillColor=none;top=0;left=0;bottom=0;right=0;points=[[0,0.5],[1,0.5]];portConstraint=eastwest;strokeColor=#D0CEE2;fontColor=#1A1A1A;" parent="NyFvF2G4yUZ6XenXAswd-11" vertex="1">
          <mxGeometry width="120" height="40" as="geometry" />
        </mxCell>
        <mxCell id="NyFvF2G4yUZ6XenXAswd-13" value="*prev" style="shape=partialRectangle;html=1;whiteSpace=wrap;connectable=0;overflow=hidden;fillColor=none;top=0;left=0;bottom=0;right=0;strokeColor=#D0CEE2;fontColor=#1A1A1A;" parent="NyFvF2G4yUZ6XenXAswd-12" vertex="1">
          <mxGeometry width="40" height="40" as="geometry">
            <mxRectangle width="40" height="40" as="alternateBounds" />
          </mxGeometry>
        </mxCell>
        <mxCell id="NyFvF2G4yUZ6XenXAswd-14" value="&lt;font color=&quot;#ff0000&quot;&gt;new&lt;/font&gt;" style="shape=partialRectangle;html=1;whiteSpace=wrap;connectable=0;overflow=hidden;fillColor=none;top=0;left=0;bottom=0;right=0;strokeColor=#D0CEE2;fontColor=#1A1A1A;" parent="NyFvF2G4yUZ6XenXAswd-12" vertex="1">
          <mxGeometry x="40" width="40" height="40" as="geometry">
            <mxRectangle width="40" height="40" as="alternateBounds" />
          </mxGeometry>
        </mxCell>
        <mxCell id="NyFvF2G4yUZ6XenXAswd-15" value="*next" style="shape=partialRectangle;html=1;whiteSpace=wrap;connectable=0;overflow=hidden;fillColor=none;top=0;left=0;bottom=0;right=0;strokeColor=#D0CEE2;fontColor=#1A1A1A;" parent="NyFvF2G4yUZ6XenXAswd-12" vertex="1">
          <mxGeometry x="80" width="40" height="40" as="geometry">
            <mxRectangle width="40" height="40" as="alternateBounds" />
          </mxGeometry>
        </mxCell>
        <mxCell id="NyFvF2G4yUZ6XenXAswd-18" value="" style="shape=table;startSize=0;container=1;collapsible=0;childLayout=tableLayout;fillColor=#FAD9D5;strokeColor=#D0CEE2;fontColor=#1A1A1A;" parent="1" vertex="1">
          <mxGeometry x="1040" y="280" width="120" height="40" as="geometry" />
        </mxCell>
        <mxCell id="NyFvF2G4yUZ6XenXAswd-19" value="" style="shape=partialRectangle;collapsible=0;dropTarget=0;pointerEvents=0;fillColor=none;top=0;left=0;bottom=0;right=0;points=[[0,0.5],[1,0.5]];portConstraint=eastwest;strokeColor=#D0CEE2;fontColor=#1A1A1A;" parent="NyFvF2G4yUZ6XenXAswd-18" vertex="1">
          <mxGeometry width="120" height="40" as="geometry" />
        </mxCell>
        <mxCell id="NyFvF2G4yUZ6XenXAswd-20" value="*prev" style="shape=partialRectangle;html=1;whiteSpace=wrap;connectable=0;overflow=hidden;fillColor=none;top=0;left=0;bottom=0;right=0;strokeColor=#D0CEE2;fontColor=#1A1A1A;" parent="NyFvF2G4yUZ6XenXAswd-19" vertex="1">
          <mxGeometry width="40" height="40" as="geometry">
            <mxRectangle width="40" height="40" as="alternateBounds" />
          </mxGeometry>
        </mxCell>
        <mxCell id="NyFvF2G4yUZ6XenXAswd-21" value="&lt;font color=&quot;#ff0000&quot;&gt;head&lt;/font&gt;" style="shape=partialRectangle;html=1;whiteSpace=wrap;connectable=0;overflow=hidden;fillColor=none;top=0;left=0;bottom=0;right=0;strokeColor=#D0CEE2;fontColor=#1A1A1A;" parent="NyFvF2G4yUZ6XenXAswd-19" vertex="1">
          <mxGeometry x="40" width="40" height="40" as="geometry">
            <mxRectangle width="40" height="40" as="alternateBounds" />
          </mxGeometry>
        </mxCell>
        <mxCell id="NyFvF2G4yUZ6XenXAswd-22" value="*next" style="shape=partialRectangle;html=1;whiteSpace=wrap;connectable=0;overflow=hidden;fillColor=none;top=0;left=0;bottom=0;right=0;strokeColor=#D0CEE2;fontColor=#1A1A1A;" parent="NyFvF2G4yUZ6XenXAswd-19" vertex="1">
          <mxGeometry x="80" width="40" height="40" as="geometry">
            <mxRectangle width="40" height="40" as="alternateBounds" />
          </mxGeometry>
        </mxCell>
        <mxCell id="NyFvF2G4yUZ6XenXAswd-27" value="" style="shape=table;startSize=0;container=1;collapsible=0;childLayout=tableLayout;fillColor=#FAD9D5;strokeColor=#D0CEE2;fontColor=#1A1A1A;" parent="1" vertex="1">
          <mxGeometry x="859.94" y="420" width="200" height="40" as="geometry" />
        </mxCell>
        <mxCell id="NyFvF2G4yUZ6XenXAswd-28" value="" style="shape=partialRectangle;collapsible=0;dropTarget=0;pointerEvents=0;fillColor=none;top=0;left=0;bottom=0;right=0;points=[[0,0.5],[1,0.5]];portConstraint=eastwest;strokeColor=#D0CEE2;fontColor=#1A1A1A;" parent="NyFvF2G4yUZ6XenXAswd-27" vertex="1">
          <mxGeometry width="200" height="40" as="geometry" />
        </mxCell>
        <mxCell id="NyFvF2G4yUZ6XenXAswd-29" value="*prev" style="shape=partialRectangle;html=1;whiteSpace=wrap;connectable=0;overflow=hidden;fillColor=none;top=0;left=0;bottom=0;right=0;strokeColor=#D0CEE2;fontColor=#1A1A1A;" parent="NyFvF2G4yUZ6XenXAswd-28" vertex="1">
          <mxGeometry width="60" height="40" as="geometry">
            <mxRectangle width="60" height="40" as="alternateBounds" />
          </mxGeometry>
        </mxCell>
        <mxCell id="NyFvF2G4yUZ6XenXAswd-30" value="&lt;font color=&quot;#ff0000&quot;&gt;new&lt;/font&gt;" style="shape=partialRectangle;html=1;whiteSpace=wrap;connectable=0;overflow=hidden;fillColor=none;top=0;left=0;bottom=0;right=0;strokeColor=#D0CEE2;fontColor=#1A1A1A;" parent="NyFvF2G4yUZ6XenXAswd-28" vertex="1">
          <mxGeometry x="60" width="80" height="40" as="geometry">
            <mxRectangle width="80" height="40" as="alternateBounds" />
          </mxGeometry>
        </mxCell>
        <mxCell id="NyFvF2G4yUZ6XenXAswd-31" value="*next" style="shape=partialRectangle;html=1;whiteSpace=wrap;connectable=0;overflow=hidden;fillColor=none;top=0;left=0;bottom=0;right=0;strokeColor=#D0CEE2;fontColor=#1A1A1A;" parent="NyFvF2G4yUZ6XenXAswd-28" vertex="1">
          <mxGeometry x="140" width="60" height="40" as="geometry">
            <mxRectangle width="60" height="40" as="alternateBounds" />
          </mxGeometry>
        </mxCell>
        <mxCell id="NyFvF2G4yUZ6XenXAswd-32" value="" style="shape=table;startSize=0;container=1;collapsible=0;childLayout=tableLayout;fillColor=#FAD9D5;strokeColor=#D0CEE2;fontColor=#1A1A1A;" parent="1" vertex="1">
          <mxGeometry x="1140" y="420" width="200" height="40" as="geometry" />
        </mxCell>
        <mxCell id="NyFvF2G4yUZ6XenXAswd-33" value="" style="shape=partialRectangle;collapsible=0;dropTarget=0;pointerEvents=0;fillColor=none;top=0;left=0;bottom=0;right=0;points=[[0,0.5],[1,0.5]];portConstraint=eastwest;strokeColor=#D0CEE2;fontColor=#1A1A1A;" parent="NyFvF2G4yUZ6XenXAswd-32" vertex="1">
          <mxGeometry width="200" height="40" as="geometry" />
        </mxCell>
        <mxCell id="NyFvF2G4yUZ6XenXAswd-34" value="*prev" style="shape=partialRectangle;html=1;whiteSpace=wrap;connectable=0;overflow=hidden;fillColor=none;top=0;left=0;bottom=0;right=0;strokeColor=#D0CEE2;fontColor=#1A1A1A;" parent="NyFvF2G4yUZ6XenXAswd-33" vertex="1">
          <mxGeometry width="60" height="40" as="geometry">
            <mxRectangle width="60" height="40" as="alternateBounds" />
          </mxGeometry>
        </mxCell>
        <mxCell id="NyFvF2G4yUZ6XenXAswd-35" value="&lt;font color=&quot;#ff0000&quot;&gt;prev/next&lt;/font&gt;" style="shape=partialRectangle;html=1;whiteSpace=wrap;connectable=0;overflow=hidden;fillColor=none;top=0;left=0;bottom=0;right=0;strokeColor=#D0CEE2;fontColor=#1A1A1A;" parent="NyFvF2G4yUZ6XenXAswd-33" vertex="1">
          <mxGeometry x="60" width="80" height="40" as="geometry">
            <mxRectangle width="80" height="40" as="alternateBounds" />
          </mxGeometry>
        </mxCell>
        <mxCell id="NyFvF2G4yUZ6XenXAswd-36" value="*next" style="shape=partialRectangle;html=1;whiteSpace=wrap;connectable=0;overflow=hidden;fillColor=none;top=0;left=0;bottom=0;right=0;strokeColor=#D0CEE2;fontColor=#1A1A1A;" parent="NyFvF2G4yUZ6XenXAswd-33" vertex="1">
          <mxGeometry x="140" width="60" height="40" as="geometry">
            <mxRectangle width="60" height="40" as="alternateBounds" />
          </mxGeometry>
        </mxCell>
        <mxCell id="NyFvF2G4yUZ6XenXAswd-37" style="edgeStyle=orthogonalEdgeStyle;rounded=0;orthogonalLoop=1;jettySize=auto;html=1;entryX=1.005;entryY=0.263;entryDx=0;entryDy=0;entryPerimeter=0;strokeColor=#09555B;fontColor=#1A1A1A;" parent="1" source="NyFvF2G4yUZ6XenXAswd-33" target="NyFvF2G4yUZ6XenXAswd-28" edge="1">
          <mxGeometry relative="1" as="geometry">
            <Array as="points">
              <mxPoint x="1100" y="431" />
            </Array>
            <mxPoint x="1140" y="431" as="sourcePoint" />
          </mxGeometry>
        </mxCell>
        <mxCell id="NyFvF2G4yUZ6XenXAswd-38" style="edgeStyle=orthogonalEdgeStyle;rounded=0;orthogonalLoop=1;jettySize=auto;html=1;entryX=-0.01;entryY=0.75;entryDx=0;entryDy=0;entryPerimeter=0;strokeColor=#09555B;fontColor=#1A1A1A;" parent="1" source="NyFvF2G4yUZ6XenXAswd-28" target="NyFvF2G4yUZ6XenXAswd-33" edge="1">
          <mxGeometry relative="1" as="geometry">
            <Array as="points">
              <mxPoint x="1080" y="450" />
              <mxPoint x="1080" y="450" />
            </Array>
            <mxPoint x="1060" y="450" as="sourcePoint" />
          </mxGeometry>
        </mxCell>
        <mxCell id="NyFvF2G4yUZ6XenXAswd-40" style="edgeStyle=orthogonalEdgeStyle;rounded=0;orthogonalLoop=1;jettySize=auto;html=1;entryX=1.005;entryY=0.72;entryDx=0;entryDy=0;entryPerimeter=0;strokeColor=#09555B;fontColor=#1A1A1A;" parent="1" source="NyFvF2G4yUZ6XenXAswd-28" target="NyFvF2G4yUZ6XenXAswd-33" edge="1">
          <mxGeometry relative="1" as="geometry">
            <mxPoint x="1360" y="480" as="targetPoint" />
            <Array as="points">
              <mxPoint x="840" y="448" />
              <mxPoint x="840" y="480" />
              <mxPoint x="1360" y="480" />
              <mxPoint x="1360" y="449" />
            </Array>
            <mxPoint x="860" y="448" as="sourcePoint" />
          </mxGeometry>
        </mxCell>
        <mxCell id="NyFvF2G4yUZ6XenXAswd-41" value="" style="shape=table;startSize=0;container=1;collapsible=0;childLayout=tableLayout;fillColor=#FAD9D5;strokeColor=#D0CEE2;fontColor=#1A1A1A;" parent="1" vertex="1">
          <mxGeometry x="80" y="1580" width="120" height="40" as="geometry" />
        </mxCell>
        <mxCell id="NyFvF2G4yUZ6XenXAswd-42" value="" style="shape=partialRectangle;collapsible=0;dropTarget=0;pointerEvents=0;fillColor=none;top=0;left=0;bottom=0;right=0;points=[[0,0.5],[1,0.5]];portConstraint=eastwest;strokeColor=#D0CEE2;fontColor=#1A1A1A;" parent="NyFvF2G4yUZ6XenXAswd-41" vertex="1">
          <mxGeometry width="120" height="40" as="geometry" />
        </mxCell>
        <mxCell id="NyFvF2G4yUZ6XenXAswd-43" value="*prev" style="shape=partialRectangle;html=1;whiteSpace=wrap;connectable=0;overflow=hidden;fillColor=none;top=0;left=0;bottom=0;right=0;strokeColor=#D0CEE2;fontColor=#1A1A1A;" parent="NyFvF2G4yUZ6XenXAswd-42" vertex="1">
          <mxGeometry width="40" height="40" as="geometry">
            <mxRectangle width="40" height="40" as="alternateBounds" />
          </mxGeometry>
        </mxCell>
        <mxCell id="NyFvF2G4yUZ6XenXAswd-44" value="&lt;font color=&quot;#ff0000&quot;&gt;new&lt;/font&gt;" style="shape=partialRectangle;html=1;whiteSpace=wrap;connectable=0;overflow=hidden;fillColor=none;top=0;left=0;bottom=0;right=0;strokeColor=#D0CEE2;fontColor=#1A1A1A;" parent="NyFvF2G4yUZ6XenXAswd-42" vertex="1">
          <mxGeometry x="40" width="40" height="40" as="geometry">
            <mxRectangle width="40" height="40" as="alternateBounds" />
          </mxGeometry>
        </mxCell>
        <mxCell id="NyFvF2G4yUZ6XenXAswd-45" value="*next" style="shape=partialRectangle;html=1;whiteSpace=wrap;connectable=0;overflow=hidden;fillColor=none;top=0;left=0;bottom=0;right=0;strokeColor=#D0CEE2;fontColor=#1A1A1A;" parent="NyFvF2G4yUZ6XenXAswd-42" vertex="1">
          <mxGeometry x="80" width="40" height="40" as="geometry">
            <mxRectangle width="40" height="40" as="alternateBounds" />
          </mxGeometry>
        </mxCell>
        <mxCell id="NyFvF2G4yUZ6XenXAswd-46" value="" style="shape=table;startSize=0;container=1;collapsible=0;childLayout=tableLayout;fillColor=#FAD9D5;strokeColor=#D0CEE2;fontColor=#1A1A1A;" parent="1" vertex="1">
          <mxGeometry x="480" y="1580" width="120" height="40" as="geometry" />
        </mxCell>
        <mxCell id="NyFvF2G4yUZ6XenXAswd-47" value="" style="shape=partialRectangle;collapsible=0;dropTarget=0;pointerEvents=0;fillColor=none;top=0;left=0;bottom=0;right=0;points=[[0,0.5],[1,0.5]];portConstraint=eastwest;strokeColor=#D0CEE2;fontColor=#1A1A1A;" parent="NyFvF2G4yUZ6XenXAswd-46" vertex="1">
          <mxGeometry width="120" height="40" as="geometry" />
        </mxCell>
        <mxCell id="NyFvF2G4yUZ6XenXAswd-48" value="*prev" style="shape=partialRectangle;html=1;whiteSpace=wrap;connectable=0;overflow=hidden;fillColor=none;top=0;left=0;bottom=0;right=0;strokeColor=#D0CEE2;fontColor=#1A1A1A;" parent="NyFvF2G4yUZ6XenXAswd-47" vertex="1">
          <mxGeometry width="40" height="40" as="geometry">
            <mxRectangle width="40" height="40" as="alternateBounds" />
          </mxGeometry>
        </mxCell>
        <mxCell id="NyFvF2G4yUZ6XenXAswd-49" value="&lt;font color=&quot;#ff0000&quot;&gt;head&lt;/font&gt;" style="shape=partialRectangle;html=1;whiteSpace=wrap;connectable=0;overflow=hidden;fillColor=none;top=0;left=0;bottom=0;right=0;strokeColor=#D0CEE2;fontColor=#1A1A1A;" parent="NyFvF2G4yUZ6XenXAswd-47" vertex="1">
          <mxGeometry x="40" width="40" height="40" as="geometry">
            <mxRectangle width="40" height="40" as="alternateBounds" />
          </mxGeometry>
        </mxCell>
        <mxCell id="NyFvF2G4yUZ6XenXAswd-50" value="*next" style="shape=partialRectangle;html=1;whiteSpace=wrap;connectable=0;overflow=hidden;fillColor=none;top=0;left=0;bottom=0;right=0;strokeColor=#D0CEE2;fontColor=#1A1A1A;" parent="NyFvF2G4yUZ6XenXAswd-47" vertex="1">
          <mxGeometry x="80" width="40" height="40" as="geometry">
            <mxRectangle width="40" height="40" as="alternateBounds" />
          </mxGeometry>
        </mxCell>
        <mxCell id="NyFvF2G4yUZ6XenXAswd-51" value="&lt;font style=&quot;font-size: 16px&quot;&gt;头插法添加第二个元素&lt;/font&gt;" style="text;html=1;align=center;verticalAlign=middle;resizable=0;points=[];autosize=1;strokeColor=none;fontColor=#1A1A1A;" parent="1" vertex="1">
          <mxGeometry x="80" y="1480" width="180" height="20" as="geometry" />
        </mxCell>
        <mxCell id="NyFvF2G4yUZ6XenXAswd-52" value="" style="shape=table;startSize=0;container=1;collapsible=0;childLayout=tableLayout;fillColor=#FAD9D5;strokeColor=#D0CEE2;fontColor=#1A1A1A;" parent="1" vertex="1">
          <mxGeometry x="280" y="1580" width="120" height="40" as="geometry" />
        </mxCell>
        <mxCell id="NyFvF2G4yUZ6XenXAswd-53" value="" style="shape=partialRectangle;collapsible=0;dropTarget=0;pointerEvents=0;fillColor=none;top=0;left=0;bottom=0;right=0;points=[[0,0.5],[1,0.5]];portConstraint=eastwest;strokeColor=#D0CEE2;fontColor=#1A1A1A;" parent="NyFvF2G4yUZ6XenXAswd-52" vertex="1">
          <mxGeometry width="120" height="40" as="geometry" />
        </mxCell>
        <mxCell id="NyFvF2G4yUZ6XenXAswd-54" value="*prev" style="shape=partialRectangle;html=1;whiteSpace=wrap;connectable=0;overflow=hidden;fillColor=none;top=0;left=0;bottom=0;right=0;strokeColor=#D0CEE2;fontColor=#1A1A1A;" parent="NyFvF2G4yUZ6XenXAswd-53" vertex="1">
          <mxGeometry width="40" height="40" as="geometry">
            <mxRectangle width="40" height="40" as="alternateBounds" />
          </mxGeometry>
        </mxCell>
        <mxCell id="NyFvF2G4yUZ6XenXAswd-55" value="L1" style="shape=partialRectangle;html=1;whiteSpace=wrap;connectable=0;overflow=hidden;fillColor=none;top=0;left=0;bottom=0;right=0;strokeColor=#D0CEE2;fontColor=#1A1A1A;" parent="NyFvF2G4yUZ6XenXAswd-53" vertex="1">
          <mxGeometry x="40" width="40" height="40" as="geometry">
            <mxRectangle width="40" height="40" as="alternateBounds" />
          </mxGeometry>
        </mxCell>
        <mxCell id="NyFvF2G4yUZ6XenXAswd-56" value="*next" style="shape=partialRectangle;html=1;whiteSpace=wrap;connectable=0;overflow=hidden;fillColor=none;top=0;left=0;bottom=0;right=0;strokeColor=#D0CEE2;fontColor=#1A1A1A;" parent="NyFvF2G4yUZ6XenXAswd-53" vertex="1">
          <mxGeometry x="80" width="40" height="40" as="geometry">
            <mxRectangle width="40" height="40" as="alternateBounds" />
          </mxGeometry>
        </mxCell>
        <mxCell id="NyFvF2G4yUZ6XenXAswd-57" value="&lt;font style=&quot;font-size: 16px&quot;&gt;list__add&lt;/font&gt;" style="text;html=1;align=center;verticalAlign=middle;resizable=0;points=[];autosize=1;strokeColor=none;fontColor=#1A1A1A;" parent="1" vertex="1">
          <mxGeometry x="80" y="1540" width="80" height="20" as="geometry" />
        </mxCell>
        <mxCell id="NyFvF2G4yUZ6XenXAswd-58" value="" style="shape=table;startSize=0;container=1;collapsible=0;childLayout=tableLayout;fillColor=#FAD9D5;strokeColor=#D0CEE2;fontColor=#1A1A1A;" parent="1" vertex="1">
          <mxGeometry x="80" y="1760" width="120" height="40" as="geometry" />
        </mxCell>
        <mxCell id="NyFvF2G4yUZ6XenXAswd-59" value="" style="shape=partialRectangle;collapsible=0;dropTarget=0;pointerEvents=0;fillColor=none;top=0;left=0;bottom=0;right=0;points=[[0,0.5],[1,0.5]];portConstraint=eastwest;strokeColor=#D0CEE2;fontColor=#1A1A1A;" parent="NyFvF2G4yUZ6XenXAswd-58" vertex="1">
          <mxGeometry width="120" height="40" as="geometry" />
        </mxCell>
        <mxCell id="NyFvF2G4yUZ6XenXAswd-60" value="*prev" style="shape=partialRectangle;html=1;whiteSpace=wrap;connectable=0;overflow=hidden;fillColor=none;top=0;left=0;bottom=0;right=0;strokeColor=#D0CEE2;fontColor=#1A1A1A;" parent="NyFvF2G4yUZ6XenXAswd-59" vertex="1">
          <mxGeometry width="40" height="40" as="geometry">
            <mxRectangle width="40" height="40" as="alternateBounds" />
          </mxGeometry>
        </mxCell>
        <mxCell id="NyFvF2G4yUZ6XenXAswd-61" value="&lt;font color=&quot;#ff0000&quot;&gt;new&lt;/font&gt;" style="shape=partialRectangle;html=1;whiteSpace=wrap;connectable=0;overflow=hidden;fillColor=none;top=0;left=0;bottom=0;right=0;strokeColor=#D0CEE2;fontColor=#1A1A1A;" parent="NyFvF2G4yUZ6XenXAswd-59" vertex="1">
          <mxGeometry x="40" width="40" height="40" as="geometry">
            <mxRectangle width="40" height="40" as="alternateBounds" />
          </mxGeometry>
        </mxCell>
        <mxCell id="NyFvF2G4yUZ6XenXAswd-62" value="*next" style="shape=partialRectangle;html=1;whiteSpace=wrap;connectable=0;overflow=hidden;fillColor=none;top=0;left=0;bottom=0;right=0;strokeColor=#D0CEE2;fontColor=#1A1A1A;" parent="NyFvF2G4yUZ6XenXAswd-59" vertex="1">
          <mxGeometry x="80" width="40" height="40" as="geometry">
            <mxRectangle width="40" height="40" as="alternateBounds" />
          </mxGeometry>
        </mxCell>
        <mxCell id="NyFvF2G4yUZ6XenXAswd-73" style="edgeStyle=orthogonalEdgeStyle;rounded=0;orthogonalLoop=1;jettySize=auto;html=1;exitX=1;exitY=0.5;exitDx=0;exitDy=0;entryX=0;entryY=0.3;entryDx=0;entryDy=0;entryPerimeter=0;strokeColor=#09555B;fontColor=#1A1A1A;" parent="1" source="NyFvF2G4yUZ6XenXAswd-47" target="NyFvF2G4yUZ6XenXAswd-53" edge="1">
          <mxGeometry relative="1" as="geometry">
            <Array as="points">
              <mxPoint x="600" y="1592" />
              <mxPoint x="620" y="1592" />
              <mxPoint x="620" y="1560" />
              <mxPoint x="260" y="1560" />
              <mxPoint x="260" y="1592" />
            </Array>
          </mxGeometry>
        </mxCell>
        <mxCell id="NyFvF2G4yUZ6XenXAswd-74" style="edgeStyle=orthogonalEdgeStyle;rounded=0;orthogonalLoop=1;jettySize=auto;html=1;exitX=0;exitY=0.5;exitDx=0;exitDy=0;entryX=1.025;entryY=0.75;entryDx=0;entryDy=0;entryPerimeter=0;strokeColor=#09555B;fontColor=#1A1A1A;" parent="1" source="NyFvF2G4yUZ6XenXAswd-53" target="NyFvF2G4yUZ6XenXAswd-47" edge="1">
          <mxGeometry relative="1" as="geometry">
            <Array as="points">
              <mxPoint x="280" y="1610" />
              <mxPoint x="260" y="1610" />
              <mxPoint x="260" y="1640" />
              <mxPoint x="620" y="1640" />
              <mxPoint x="620" y="1610" />
            </Array>
          </mxGeometry>
        </mxCell>
        <mxCell id="NyFvF2G4yUZ6XenXAswd-75" style="edgeStyle=orthogonalEdgeStyle;rounded=0;orthogonalLoop=1;jettySize=auto;html=1;exitX=1;exitY=0.5;exitDx=0;exitDy=0;entryX=-0.017;entryY=0.325;entryDx=0;entryDy=0;entryPerimeter=0;strokeColor=#09555B;fontColor=#1A1A1A;" parent="1" source="NyFvF2G4yUZ6XenXAswd-53" target="NyFvF2G4yUZ6XenXAswd-47" edge="1">
          <mxGeometry relative="1" as="geometry">
            <Array as="points">
              <mxPoint x="400" y="1593" />
            </Array>
          </mxGeometry>
        </mxCell>
        <mxCell id="NyFvF2G4yUZ6XenXAswd-76" style="edgeStyle=orthogonalEdgeStyle;rounded=0;orthogonalLoop=1;jettySize=auto;html=1;exitX=0;exitY=0.5;exitDx=0;exitDy=0;entryX=1;entryY=0.725;entryDx=0;entryDy=0;entryPerimeter=0;strokeColor=#09555B;fontColor=#1A1A1A;" parent="1" source="NyFvF2G4yUZ6XenXAswd-47" target="NyFvF2G4yUZ6XenXAswd-53" edge="1">
          <mxGeometry relative="1" as="geometry">
            <Array as="points">
              <mxPoint x="480" y="1609" />
            </Array>
          </mxGeometry>
        </mxCell>
        <mxCell id="NyFvF2G4yUZ6XenXAswd-91" value="" style="shape=table;startSize=0;container=1;collapsible=0;childLayout=tableLayout;fillColor=#FAD9D5;strokeColor=#D0CEE2;fontColor=#1A1A1A;" parent="1" vertex="1">
          <mxGeometry x="480" y="1760" width="120" height="40" as="geometry" />
        </mxCell>
        <mxCell id="NyFvF2G4yUZ6XenXAswd-92" value="" style="shape=partialRectangle;collapsible=0;dropTarget=0;pointerEvents=0;fillColor=none;top=0;left=0;bottom=0;right=0;points=[[0,0.5],[1,0.5]];portConstraint=eastwest;strokeColor=#D0CEE2;fontColor=#1A1A1A;" parent="NyFvF2G4yUZ6XenXAswd-91" vertex="1">
          <mxGeometry width="120" height="40" as="geometry" />
        </mxCell>
        <mxCell id="NyFvF2G4yUZ6XenXAswd-93" value="*prev" style="shape=partialRectangle;html=1;whiteSpace=wrap;connectable=0;overflow=hidden;fillColor=none;top=0;left=0;bottom=0;right=0;strokeColor=#D0CEE2;fontColor=#1A1A1A;" parent="NyFvF2G4yUZ6XenXAswd-92" vertex="1">
          <mxGeometry width="40" height="40" as="geometry">
            <mxRectangle width="40" height="40" as="alternateBounds" />
          </mxGeometry>
        </mxCell>
        <mxCell id="NyFvF2G4yUZ6XenXAswd-94" value="&lt;font color=&quot;#ff0000&quot;&gt;prev&lt;/font&gt;" style="shape=partialRectangle;html=1;whiteSpace=wrap;connectable=0;overflow=hidden;fillColor=none;top=0;left=0;bottom=0;right=0;strokeColor=#D0CEE2;fontColor=#1A1A1A;" parent="NyFvF2G4yUZ6XenXAswd-92" vertex="1">
          <mxGeometry x="40" width="40" height="40" as="geometry">
            <mxRectangle width="40" height="40" as="alternateBounds" />
          </mxGeometry>
        </mxCell>
        <mxCell id="NyFvF2G4yUZ6XenXAswd-95" value="*next" style="shape=partialRectangle;html=1;whiteSpace=wrap;connectable=0;overflow=hidden;fillColor=none;top=0;left=0;bottom=0;right=0;strokeColor=#D0CEE2;fontColor=#1A1A1A;" parent="NyFvF2G4yUZ6XenXAswd-92" vertex="1">
          <mxGeometry x="80" width="40" height="40" as="geometry">
            <mxRectangle width="40" height="40" as="alternateBounds" />
          </mxGeometry>
        </mxCell>
        <mxCell id="NyFvF2G4yUZ6XenXAswd-96" value="" style="shape=table;startSize=0;container=1;collapsible=0;childLayout=tableLayout;fillColor=#FAD9D5;strokeColor=#D0CEE2;fontColor=#1A1A1A;" parent="1" vertex="1">
          <mxGeometry x="280" y="1760" width="120" height="40" as="geometry" />
        </mxCell>
        <mxCell id="NyFvF2G4yUZ6XenXAswd-97" value="" style="shape=partialRectangle;collapsible=0;dropTarget=0;pointerEvents=0;fillColor=none;top=0;left=0;bottom=0;right=0;points=[[0,0.5],[1,0.5]];portConstraint=eastwest;strokeColor=#D0CEE2;fontColor=#1A1A1A;" parent="NyFvF2G4yUZ6XenXAswd-96" vertex="1">
          <mxGeometry width="120" height="40" as="geometry" />
        </mxCell>
        <mxCell id="NyFvF2G4yUZ6XenXAswd-98" value="*prev" style="shape=partialRectangle;html=1;whiteSpace=wrap;connectable=0;overflow=hidden;fillColor=none;top=0;left=0;bottom=0;right=0;strokeColor=#D0CEE2;fontColor=#1A1A1A;" parent="NyFvF2G4yUZ6XenXAswd-97" vertex="1">
          <mxGeometry width="40" height="40" as="geometry">
            <mxRectangle width="40" height="40" as="alternateBounds" />
          </mxGeometry>
        </mxCell>
        <mxCell id="NyFvF2G4yUZ6XenXAswd-99" value="&lt;font color=&quot;#ff0000&quot;&gt;next&lt;/font&gt;" style="shape=partialRectangle;html=1;whiteSpace=wrap;connectable=0;overflow=hidden;fillColor=none;top=0;left=0;bottom=0;right=0;strokeColor=#D0CEE2;fontColor=#1A1A1A;" parent="NyFvF2G4yUZ6XenXAswd-97" vertex="1">
          <mxGeometry x="40" width="40" height="40" as="geometry">
            <mxRectangle width="40" height="40" as="alternateBounds" />
          </mxGeometry>
        </mxCell>
        <mxCell id="NyFvF2G4yUZ6XenXAswd-100" value="*next" style="shape=partialRectangle;html=1;whiteSpace=wrap;connectable=0;overflow=hidden;fillColor=none;top=0;left=0;bottom=0;right=0;strokeColor=#D0CEE2;fontColor=#1A1A1A;" parent="NyFvF2G4yUZ6XenXAswd-97" vertex="1">
          <mxGeometry x="80" width="40" height="40" as="geometry">
            <mxRectangle width="40" height="40" as="alternateBounds" />
          </mxGeometry>
        </mxCell>
        <mxCell id="NyFvF2G4yUZ6XenXAswd-101" style="edgeStyle=orthogonalEdgeStyle;rounded=0;orthogonalLoop=1;jettySize=auto;html=1;exitX=1;exitY=0.5;exitDx=0;exitDy=0;entryX=0;entryY=0.3;entryDx=0;entryDy=0;entryPerimeter=0;strokeColor=#09555B;fontColor=#1A1A1A;" parent="1" source="NyFvF2G4yUZ6XenXAswd-92" target="NyFvF2G4yUZ6XenXAswd-97" edge="1">
          <mxGeometry relative="1" as="geometry">
            <Array as="points">
              <mxPoint x="600" y="1772" />
              <mxPoint x="620" y="1772" />
              <mxPoint x="620" y="1740" />
              <mxPoint x="260" y="1740" />
              <mxPoint x="260" y="1772" />
            </Array>
          </mxGeometry>
        </mxCell>
        <mxCell id="NyFvF2G4yUZ6XenXAswd-102" style="edgeStyle=orthogonalEdgeStyle;rounded=0;orthogonalLoop=1;jettySize=auto;html=1;exitX=0;exitY=0.5;exitDx=0;exitDy=0;entryX=1.025;entryY=0.75;entryDx=0;entryDy=0;entryPerimeter=0;strokeColor=#09555B;fontColor=#1A1A1A;" parent="1" source="NyFvF2G4yUZ6XenXAswd-97" target="NyFvF2G4yUZ6XenXAswd-92" edge="1">
          <mxGeometry relative="1" as="geometry">
            <Array as="points">
              <mxPoint x="280" y="1790" />
              <mxPoint x="260" y="1790" />
              <mxPoint x="260" y="1820" />
              <mxPoint x="620" y="1820" />
              <mxPoint x="620" y="1790" />
            </Array>
          </mxGeometry>
        </mxCell>
        <mxCell id="NyFvF2G4yUZ6XenXAswd-103" style="edgeStyle=orthogonalEdgeStyle;rounded=0;orthogonalLoop=1;jettySize=auto;html=1;exitX=1;exitY=0.5;exitDx=0;exitDy=0;entryX=-0.017;entryY=0.325;entryDx=0;entryDy=0;entryPerimeter=0;strokeColor=#09555B;fontColor=#1A1A1A;" parent="1" source="NyFvF2G4yUZ6XenXAswd-97" target="NyFvF2G4yUZ6XenXAswd-92" edge="1">
          <mxGeometry relative="1" as="geometry">
            <Array as="points">
              <mxPoint x="400" y="1773" />
            </Array>
          </mxGeometry>
        </mxCell>
        <mxCell id="NyFvF2G4yUZ6XenXAswd-104" style="edgeStyle=orthogonalEdgeStyle;rounded=0;orthogonalLoop=1;jettySize=auto;html=1;exitX=0;exitY=0.5;exitDx=0;exitDy=0;entryX=1;entryY=0.725;entryDx=0;entryDy=0;entryPerimeter=0;strokeColor=#09555B;fontColor=#1A1A1A;" parent="1" source="NyFvF2G4yUZ6XenXAswd-92" target="NyFvF2G4yUZ6XenXAswd-97" edge="1">
          <mxGeometry relative="1" as="geometry">
            <Array as="points">
              <mxPoint x="480" y="1789" />
            </Array>
          </mxGeometry>
        </mxCell>
        <mxCell id="NyFvF2G4yUZ6XenXAswd-105" value="&lt;font style=&quot;font-size: 16px&quot;&gt;__list__add&lt;/font&gt;" style="text;html=1;align=center;verticalAlign=middle;resizable=0;points=[];autosize=1;strokeColor=none;fontColor=#1A1A1A;" parent="1" vertex="1">
          <mxGeometry x="80" y="1680" width="100" height="20" as="geometry" />
        </mxCell>
        <mxCell id="NyFvF2G4yUZ6XenXAswd-106" value="" style="shape=table;startSize=0;container=1;collapsible=0;childLayout=tableLayout;fillColor=#FAD9D5;strokeColor=#D0CEE2;fontColor=#1A1A1A;" parent="1" vertex="1">
          <mxGeometry x="99.94" y="1920" width="120" height="40" as="geometry" />
        </mxCell>
        <mxCell id="NyFvF2G4yUZ6XenXAswd-107" value="" style="shape=partialRectangle;collapsible=0;dropTarget=0;pointerEvents=0;fillColor=none;top=0;left=0;bottom=0;right=0;points=[[0,0.5],[1,0.5]];portConstraint=eastwest;strokeColor=#D0CEE2;fontColor=#1A1A1A;" parent="NyFvF2G4yUZ6XenXAswd-106" vertex="1">
          <mxGeometry width="120" height="40" as="geometry" />
        </mxCell>
        <mxCell id="NyFvF2G4yUZ6XenXAswd-108" value="*prev" style="shape=partialRectangle;html=1;whiteSpace=wrap;connectable=0;overflow=hidden;fillColor=none;top=0;left=0;bottom=0;right=0;strokeColor=#D0CEE2;fontColor=#1A1A1A;" parent="NyFvF2G4yUZ6XenXAswd-107" vertex="1">
          <mxGeometry width="40" height="40" as="geometry">
            <mxRectangle width="40" height="40" as="alternateBounds" />
          </mxGeometry>
        </mxCell>
        <mxCell id="NyFvF2G4yUZ6XenXAswd-109" value="&lt;font color=&quot;#ff0000&quot;&gt;new&lt;/font&gt;" style="shape=partialRectangle;html=1;whiteSpace=wrap;connectable=0;overflow=hidden;fillColor=none;top=0;left=0;bottom=0;right=0;strokeColor=#D0CEE2;fontColor=#1A1A1A;" parent="NyFvF2G4yUZ6XenXAswd-107" vertex="1">
          <mxGeometry x="40" width="40" height="40" as="geometry">
            <mxRectangle width="40" height="40" as="alternateBounds" />
          </mxGeometry>
        </mxCell>
        <mxCell id="NyFvF2G4yUZ6XenXAswd-110" value="*next" style="shape=partialRectangle;html=1;whiteSpace=wrap;connectable=0;overflow=hidden;fillColor=none;top=0;left=0;bottom=0;right=0;strokeColor=#D0CEE2;fontColor=#1A1A1A;" parent="NyFvF2G4yUZ6XenXAswd-107" vertex="1">
          <mxGeometry x="80" width="40" height="40" as="geometry">
            <mxRectangle width="40" height="40" as="alternateBounds" />
          </mxGeometry>
        </mxCell>
        <mxCell id="NyFvF2G4yUZ6XenXAswd-111" value="" style="shape=table;startSize=0;container=1;collapsible=0;childLayout=tableLayout;fillColor=#FAD9D5;strokeColor=#D0CEE2;fontColor=#1A1A1A;" parent="1" vertex="1">
          <mxGeometry x="499.94" y="1920" width="120" height="40" as="geometry" />
        </mxCell>
        <mxCell id="NyFvF2G4yUZ6XenXAswd-112" value="" style="shape=partialRectangle;collapsible=0;dropTarget=0;pointerEvents=0;fillColor=none;top=0;left=0;bottom=0;right=0;points=[[0,0.5],[1,0.5]];portConstraint=eastwest;strokeColor=#D0CEE2;fontColor=#1A1A1A;" parent="NyFvF2G4yUZ6XenXAswd-111" vertex="1">
          <mxGeometry width="120" height="40" as="geometry" />
        </mxCell>
        <mxCell id="NyFvF2G4yUZ6XenXAswd-113" value="*prev" style="shape=partialRectangle;html=1;whiteSpace=wrap;connectable=0;overflow=hidden;fillColor=none;top=0;left=0;bottom=0;right=0;strokeColor=#D0CEE2;fontColor=#1A1A1A;" parent="NyFvF2G4yUZ6XenXAswd-112" vertex="1">
          <mxGeometry width="40" height="40" as="geometry">
            <mxRectangle width="40" height="40" as="alternateBounds" />
          </mxGeometry>
        </mxCell>
        <mxCell id="NyFvF2G4yUZ6XenXAswd-114" value="&lt;font color=&quot;#ff0000&quot;&gt;prev&lt;/font&gt;" style="shape=partialRectangle;html=1;whiteSpace=wrap;connectable=0;overflow=hidden;fillColor=none;top=0;left=0;bottom=0;right=0;strokeColor=#D0CEE2;fontColor=#1A1A1A;" parent="NyFvF2G4yUZ6XenXAswd-112" vertex="1">
          <mxGeometry x="40" width="40" height="40" as="geometry">
            <mxRectangle width="40" height="40" as="alternateBounds" />
          </mxGeometry>
        </mxCell>
        <mxCell id="NyFvF2G4yUZ6XenXAswd-115" value="*next" style="shape=partialRectangle;html=1;whiteSpace=wrap;connectable=0;overflow=hidden;fillColor=none;top=0;left=0;bottom=0;right=0;strokeColor=#D0CEE2;fontColor=#1A1A1A;" parent="NyFvF2G4yUZ6XenXAswd-112" vertex="1">
          <mxGeometry x="80" width="40" height="40" as="geometry">
            <mxRectangle width="40" height="40" as="alternateBounds" />
          </mxGeometry>
        </mxCell>
        <mxCell id="NyFvF2G4yUZ6XenXAswd-116" value="" style="shape=table;startSize=0;container=1;collapsible=0;childLayout=tableLayout;fillColor=#FAD9D5;strokeColor=#D0CEE2;fontColor=#1A1A1A;" parent="1" vertex="1">
          <mxGeometry x="299.94" y="1920" width="120" height="40" as="geometry" />
        </mxCell>
        <mxCell id="NyFvF2G4yUZ6XenXAswd-117" value="" style="shape=partialRectangle;collapsible=0;dropTarget=0;pointerEvents=0;fillColor=none;top=0;left=0;bottom=0;right=0;points=[[0,0.5],[1,0.5]];portConstraint=eastwest;strokeColor=#D0CEE2;fontColor=#1A1A1A;" parent="NyFvF2G4yUZ6XenXAswd-116" vertex="1">
          <mxGeometry width="120" height="40" as="geometry" />
        </mxCell>
        <mxCell id="NyFvF2G4yUZ6XenXAswd-118" value="*prev" style="shape=partialRectangle;html=1;whiteSpace=wrap;connectable=0;overflow=hidden;fillColor=none;top=0;left=0;bottom=0;right=0;strokeColor=#D0CEE2;fontColor=#1A1A1A;" parent="NyFvF2G4yUZ6XenXAswd-117" vertex="1">
          <mxGeometry width="40" height="40" as="geometry">
            <mxRectangle width="40" height="40" as="alternateBounds" />
          </mxGeometry>
        </mxCell>
        <mxCell id="NyFvF2G4yUZ6XenXAswd-119" value="&lt;font color=&quot;#ff0000&quot;&gt;next&lt;/font&gt;" style="shape=partialRectangle;html=1;whiteSpace=wrap;connectable=0;overflow=hidden;fillColor=none;top=0;left=0;bottom=0;right=0;strokeColor=#D0CEE2;fontColor=#1A1A1A;" parent="NyFvF2G4yUZ6XenXAswd-117" vertex="1">
          <mxGeometry x="40" width="40" height="40" as="geometry">
            <mxRectangle width="40" height="40" as="alternateBounds" />
          </mxGeometry>
        </mxCell>
        <mxCell id="NyFvF2G4yUZ6XenXAswd-120" value="*next" style="shape=partialRectangle;html=1;whiteSpace=wrap;connectable=0;overflow=hidden;fillColor=none;top=0;left=0;bottom=0;right=0;strokeColor=#D0CEE2;fontColor=#1A1A1A;" parent="NyFvF2G4yUZ6XenXAswd-117" vertex="1">
          <mxGeometry x="80" width="40" height="40" as="geometry">
            <mxRectangle width="40" height="40" as="alternateBounds" />
          </mxGeometry>
        </mxCell>
        <mxCell id="NyFvF2G4yUZ6XenXAswd-123" style="edgeStyle=orthogonalEdgeStyle;rounded=0;orthogonalLoop=1;jettySize=auto;html=1;entryX=-0.017;entryY=0.325;entryDx=0;entryDy=0;entryPerimeter=0;strokeColor=#09555B;fontColor=#1A1A1A;" parent="1" target="NyFvF2G4yUZ6XenXAswd-112" edge="1">
          <mxGeometry relative="1" as="geometry">
            <Array as="points">
              <mxPoint x="419.94" y="1933" />
            </Array>
            <mxPoint x="419.94" y="1933" as="sourcePoint" />
          </mxGeometry>
        </mxCell>
        <mxCell id="NyFvF2G4yUZ6XenXAswd-124" style="edgeStyle=orthogonalEdgeStyle;rounded=0;orthogonalLoop=1;jettySize=auto;html=1;entryX=1;entryY=0.725;entryDx=0;entryDy=0;entryPerimeter=0;strokeColor=#09555B;fontColor=#1A1A1A;" parent="1" target="NyFvF2G4yUZ6XenXAswd-117" edge="1">
          <mxGeometry relative="1" as="geometry">
            <Array as="points">
              <mxPoint x="499.94" y="1949" />
            </Array>
            <mxPoint x="499.94" y="1949" as="sourcePoint" />
          </mxGeometry>
        </mxCell>
        <mxCell id="NyFvF2G4yUZ6XenXAswd-125" style="edgeStyle=orthogonalEdgeStyle;rounded=0;orthogonalLoop=1;jettySize=auto;html=1;entryX=-0.017;entryY=0.325;entryDx=0;entryDy=0;entryPerimeter=0;strokeColor=#09555B;fontColor=#1A1A1A;" parent="1" edge="1">
          <mxGeometry relative="1" as="geometry">
            <Array as="points">
              <mxPoint x="221.98" y="1930" />
            </Array>
            <mxPoint x="221.98" y="1930" as="sourcePoint" />
            <mxPoint x="299.94" y="1930.0000000000002" as="targetPoint" />
          </mxGeometry>
        </mxCell>
        <mxCell id="NyFvF2G4yUZ6XenXAswd-126" style="edgeStyle=orthogonalEdgeStyle;rounded=0;orthogonalLoop=1;jettySize=auto;html=1;entryX=1;entryY=0.725;entryDx=0;entryDy=0;entryPerimeter=0;strokeColor=#09555B;fontColor=#1A1A1A;" parent="1" edge="1">
          <mxGeometry relative="1" as="geometry">
            <Array as="points">
              <mxPoint x="299.94" y="1950" />
            </Array>
            <mxPoint x="299.94" y="1950" as="sourcePoint" />
            <mxPoint x="219.94" y="1950" as="targetPoint" />
          </mxGeometry>
        </mxCell>
        <mxCell id="NyFvF2G4yUZ6XenXAswd-127" style="edgeStyle=orthogonalEdgeStyle;rounded=0;orthogonalLoop=1;jettySize=auto;html=1;entryX=-0.02;entryY=0.275;entryDx=0;entryDy=0;entryPerimeter=0;strokeColor=#09555B;fontColor=#1A1A1A;" parent="1" target="NyFvF2G4yUZ6XenXAswd-107" edge="1">
          <mxGeometry relative="1" as="geometry">
            <mxPoint x="619.94" y="1931" as="sourcePoint" />
            <Array as="points">
              <mxPoint x="619.94" y="1931" />
              <mxPoint x="639.94" y="1931" />
              <mxPoint x="639.94" y="1900" />
              <mxPoint x="79.94" y="1900" />
              <mxPoint x="79.94" y="1931" />
            </Array>
          </mxGeometry>
        </mxCell>
        <mxCell id="NyFvF2G4yUZ6XenXAswd-128" style="edgeStyle=orthogonalEdgeStyle;rounded=0;orthogonalLoop=1;jettySize=auto;html=1;entryX=0.994;entryY=0.746;entryDx=0;entryDy=0;entryPerimeter=0;strokeColor=#09555B;fontColor=#1A1A1A;" parent="1" target="NyFvF2G4yUZ6XenXAswd-112" edge="1">
          <mxGeometry relative="1" as="geometry">
            <mxPoint x="99.94" y="1950" as="sourcePoint" />
            <Array as="points">
              <mxPoint x="99.94" y="1950" />
              <mxPoint x="79.94" y="1950" />
              <mxPoint x="79.94" y="1980" />
              <mxPoint x="639.94" y="1980" />
              <mxPoint x="639.94" y="1950" />
            </Array>
          </mxGeometry>
        </mxCell>
        <mxCell id="NyFvF2G4yUZ6XenXAswd-129" value="" style="shape=table;startSize=0;container=1;collapsible=0;childLayout=tableLayout;fillColor=#FAD9D5;strokeColor=#D0CEE2;fontColor=#1A1A1A;" parent="1" vertex="1">
          <mxGeometry x="99.94" y="2080" width="120" height="40" as="geometry" />
        </mxCell>
        <mxCell id="NyFvF2G4yUZ6XenXAswd-130" value="" style="shape=partialRectangle;collapsible=0;dropTarget=0;pointerEvents=0;fillColor=none;top=0;left=0;bottom=0;right=0;points=[[0,0.5],[1,0.5]];portConstraint=eastwest;strokeColor=#D0CEE2;fontColor=#1A1A1A;" parent="NyFvF2G4yUZ6XenXAswd-129" vertex="1">
          <mxGeometry width="120" height="40" as="geometry" />
        </mxCell>
        <mxCell id="NyFvF2G4yUZ6XenXAswd-131" value="*prev" style="shape=partialRectangle;html=1;whiteSpace=wrap;connectable=0;overflow=hidden;fillColor=none;top=0;left=0;bottom=0;right=0;strokeColor=#D0CEE2;fontColor=#1A1A1A;" parent="NyFvF2G4yUZ6XenXAswd-130" vertex="1">
          <mxGeometry width="40" height="40" as="geometry">
            <mxRectangle width="40" height="40" as="alternateBounds" />
          </mxGeometry>
        </mxCell>
        <mxCell id="NyFvF2G4yUZ6XenXAswd-132" value="L2" style="shape=partialRectangle;html=1;whiteSpace=wrap;connectable=0;overflow=hidden;fillColor=none;top=0;left=0;bottom=0;right=0;strokeColor=#D0CEE2;fontColor=#1A1A1A;" parent="NyFvF2G4yUZ6XenXAswd-130" vertex="1">
          <mxGeometry x="40" width="40" height="40" as="geometry">
            <mxRectangle width="40" height="40" as="alternateBounds" />
          </mxGeometry>
        </mxCell>
        <mxCell id="NyFvF2G4yUZ6XenXAswd-133" value="*next" style="shape=partialRectangle;html=1;whiteSpace=wrap;connectable=0;overflow=hidden;fillColor=none;top=0;left=0;bottom=0;right=0;strokeColor=#D0CEE2;fontColor=#1A1A1A;" parent="NyFvF2G4yUZ6XenXAswd-130" vertex="1">
          <mxGeometry x="80" width="40" height="40" as="geometry">
            <mxRectangle width="40" height="40" as="alternateBounds" />
          </mxGeometry>
        </mxCell>
        <mxCell id="NyFvF2G4yUZ6XenXAswd-134" value="" style="shape=table;startSize=0;container=1;collapsible=0;childLayout=tableLayout;fillColor=#FAD9D5;strokeColor=#D0CEE2;fontColor=#1A1A1A;" parent="1" vertex="1">
          <mxGeometry x="499.94" y="2080" width="120" height="40" as="geometry" />
        </mxCell>
        <mxCell id="NyFvF2G4yUZ6XenXAswd-135" value="" style="shape=partialRectangle;collapsible=0;dropTarget=0;pointerEvents=0;fillColor=none;top=0;left=0;bottom=0;right=0;points=[[0,0.5],[1,0.5]];portConstraint=eastwest;strokeColor=#D0CEE2;fontColor=#1A1A1A;" parent="NyFvF2G4yUZ6XenXAswd-134" vertex="1">
          <mxGeometry width="120" height="40" as="geometry" />
        </mxCell>
        <mxCell id="NyFvF2G4yUZ6XenXAswd-136" value="*prev" style="shape=partialRectangle;html=1;whiteSpace=wrap;connectable=0;overflow=hidden;fillColor=none;top=0;left=0;bottom=0;right=0;strokeColor=#D0CEE2;fontColor=#1A1A1A;" parent="NyFvF2G4yUZ6XenXAswd-135" vertex="1">
          <mxGeometry width="40" height="40" as="geometry">
            <mxRectangle width="40" height="40" as="alternateBounds" />
          </mxGeometry>
        </mxCell>
        <mxCell id="NyFvF2G4yUZ6XenXAswd-137" value="head" style="shape=partialRectangle;html=1;whiteSpace=wrap;connectable=0;overflow=hidden;fillColor=none;top=0;left=0;bottom=0;right=0;strokeColor=#D0CEE2;fontColor=#1A1A1A;" parent="NyFvF2G4yUZ6XenXAswd-135" vertex="1">
          <mxGeometry x="40" width="40" height="40" as="geometry">
            <mxRectangle width="40" height="40" as="alternateBounds" />
          </mxGeometry>
        </mxCell>
        <mxCell id="NyFvF2G4yUZ6XenXAswd-138" value="*next" style="shape=partialRectangle;html=1;whiteSpace=wrap;connectable=0;overflow=hidden;fillColor=none;top=0;left=0;bottom=0;right=0;strokeColor=#D0CEE2;fontColor=#1A1A1A;" parent="NyFvF2G4yUZ6XenXAswd-135" vertex="1">
          <mxGeometry x="80" width="40" height="40" as="geometry">
            <mxRectangle width="40" height="40" as="alternateBounds" />
          </mxGeometry>
        </mxCell>
        <mxCell id="NyFvF2G4yUZ6XenXAswd-139" value="" style="shape=table;startSize=0;container=1;collapsible=0;childLayout=tableLayout;fillColor=#FAD9D5;strokeColor=#D0CEE2;fontColor=#1A1A1A;" parent="1" vertex="1">
          <mxGeometry x="299.94" y="2080" width="120" height="40" as="geometry" />
        </mxCell>
        <mxCell id="NyFvF2G4yUZ6XenXAswd-140" value="" style="shape=partialRectangle;collapsible=0;dropTarget=0;pointerEvents=0;fillColor=none;top=0;left=0;bottom=0;right=0;points=[[0,0.5],[1,0.5]];portConstraint=eastwest;strokeColor=#D0CEE2;fontColor=#1A1A1A;" parent="NyFvF2G4yUZ6XenXAswd-139" vertex="1">
          <mxGeometry width="120" height="40" as="geometry" />
        </mxCell>
        <mxCell id="NyFvF2G4yUZ6XenXAswd-141" value="*prev" style="shape=partialRectangle;html=1;whiteSpace=wrap;connectable=0;overflow=hidden;fillColor=none;top=0;left=0;bottom=0;right=0;strokeColor=#D0CEE2;fontColor=#1A1A1A;" parent="NyFvF2G4yUZ6XenXAswd-140" vertex="1">
          <mxGeometry width="40" height="40" as="geometry">
            <mxRectangle width="40" height="40" as="alternateBounds" />
          </mxGeometry>
        </mxCell>
        <mxCell id="NyFvF2G4yUZ6XenXAswd-142" value="L1" style="shape=partialRectangle;html=1;whiteSpace=wrap;connectable=0;overflow=hidden;fillColor=none;top=0;left=0;bottom=0;right=0;strokeColor=#D0CEE2;fontColor=#1A1A1A;" parent="NyFvF2G4yUZ6XenXAswd-140" vertex="1">
          <mxGeometry x="40" width="40" height="40" as="geometry">
            <mxRectangle width="40" height="40" as="alternateBounds" />
          </mxGeometry>
        </mxCell>
        <mxCell id="NyFvF2G4yUZ6XenXAswd-143" value="*next" style="shape=partialRectangle;html=1;whiteSpace=wrap;connectable=0;overflow=hidden;fillColor=none;top=0;left=0;bottom=0;right=0;strokeColor=#D0CEE2;fontColor=#1A1A1A;" parent="NyFvF2G4yUZ6XenXAswd-140" vertex="1">
          <mxGeometry x="80" width="40" height="40" as="geometry">
            <mxRectangle width="40" height="40" as="alternateBounds" />
          </mxGeometry>
        </mxCell>
        <mxCell id="NyFvF2G4yUZ6XenXAswd-144" style="edgeStyle=orthogonalEdgeStyle;rounded=0;orthogonalLoop=1;jettySize=auto;html=1;entryX=-0.017;entryY=0.325;entryDx=0;entryDy=0;entryPerimeter=0;strokeColor=#09555B;fontColor=#1A1A1A;" parent="1" target="NyFvF2G4yUZ6XenXAswd-135" edge="1">
          <mxGeometry relative="1" as="geometry">
            <Array as="points">
              <mxPoint x="419.94" y="2093" />
            </Array>
            <mxPoint x="419.94" y="2093" as="sourcePoint" />
          </mxGeometry>
        </mxCell>
        <mxCell id="NyFvF2G4yUZ6XenXAswd-145" style="edgeStyle=orthogonalEdgeStyle;rounded=0;orthogonalLoop=1;jettySize=auto;html=1;entryX=1;entryY=0.725;entryDx=0;entryDy=0;entryPerimeter=0;strokeColor=#09555B;fontColor=#1A1A1A;" parent="1" target="NyFvF2G4yUZ6XenXAswd-140" edge="1">
          <mxGeometry relative="1" as="geometry">
            <Array as="points">
              <mxPoint x="499.94" y="2109" />
            </Array>
            <mxPoint x="499.94" y="2109" as="sourcePoint" />
          </mxGeometry>
        </mxCell>
        <mxCell id="NyFvF2G4yUZ6XenXAswd-146" style="edgeStyle=orthogonalEdgeStyle;rounded=0;orthogonalLoop=1;jettySize=auto;html=1;entryX=-0.017;entryY=0.325;entryDx=0;entryDy=0;entryPerimeter=0;strokeColor=#09555B;fontColor=#1A1A1A;" parent="1" edge="1">
          <mxGeometry relative="1" as="geometry">
            <Array as="points">
              <mxPoint x="221.98" y="2090" />
            </Array>
            <mxPoint x="221.97999999999996" y="2090" as="sourcePoint" />
            <mxPoint x="299.94" y="2090" as="targetPoint" />
          </mxGeometry>
        </mxCell>
        <mxCell id="NyFvF2G4yUZ6XenXAswd-147" style="edgeStyle=orthogonalEdgeStyle;rounded=0;orthogonalLoop=1;jettySize=auto;html=1;entryX=1;entryY=0.725;entryDx=0;entryDy=0;entryPerimeter=0;strokeColor=#09555B;fontColor=#1A1A1A;" parent="1" edge="1">
          <mxGeometry relative="1" as="geometry">
            <Array as="points">
              <mxPoint x="299.94" y="2110" />
            </Array>
            <mxPoint x="299.94" y="2110" as="sourcePoint" />
            <mxPoint x="219.94" y="2110" as="targetPoint" />
          </mxGeometry>
        </mxCell>
        <mxCell id="NyFvF2G4yUZ6XenXAswd-148" style="edgeStyle=orthogonalEdgeStyle;rounded=0;orthogonalLoop=1;jettySize=auto;html=1;entryX=-0.02;entryY=0.275;entryDx=0;entryDy=0;entryPerimeter=0;strokeColor=#09555B;fontColor=#1A1A1A;" parent="1" target="NyFvF2G4yUZ6XenXAswd-130" edge="1">
          <mxGeometry relative="1" as="geometry">
            <mxPoint x="619.94" y="2091" as="sourcePoint" />
            <Array as="points">
              <mxPoint x="619.94" y="2091" />
              <mxPoint x="639.94" y="2091" />
              <mxPoint x="639.94" y="2060" />
              <mxPoint x="79.94" y="2060" />
              <mxPoint x="79.94" y="2091" />
            </Array>
          </mxGeometry>
        </mxCell>
        <mxCell id="NyFvF2G4yUZ6XenXAswd-149" style="edgeStyle=orthogonalEdgeStyle;rounded=0;orthogonalLoop=1;jettySize=auto;html=1;entryX=0.994;entryY=0.746;entryDx=0;entryDy=0;entryPerimeter=0;strokeColor=#09555B;fontColor=#1A1A1A;" parent="1" target="NyFvF2G4yUZ6XenXAswd-135" edge="1">
          <mxGeometry relative="1" as="geometry">
            <mxPoint x="99.94" y="2110" as="sourcePoint" />
            <Array as="points">
              <mxPoint x="99.94" y="2110" />
              <mxPoint x="79.94" y="2110" />
              <mxPoint x="79.94" y="2140" />
              <mxPoint x="639.94" y="2140" />
              <mxPoint x="639.94" y="2110" />
            </Array>
          </mxGeometry>
        </mxCell>
        <mxCell id="NyFvF2G4yUZ6XenXAswd-150" value="最终链表" style="text;html=1;align=center;verticalAlign=middle;resizable=0;points=[];autosize=1;strokeColor=none;fontColor=#1A1A1A;" parent="1" vertex="1">
          <mxGeometry x="80" y="2020" width="60" height="20" as="geometry" />
        </mxCell>
        <mxCell id="HX8R5yzGGZMdF9-Stbwx-1" style="edgeStyle=orthogonalEdgeStyle;rounded=0;orthogonalLoop=1;jettySize=auto;html=1;exitX=1.005;exitY=0.28;exitDx=0;exitDy=0;exitPerimeter=0;strokeColor=#09555B;fontColor=#1A1A1A;" parent="1" source="NyFvF2G4yUZ6XenXAswd-33" target="NyFvF2G4yUZ6XenXAswd-28" edge="1">
          <mxGeometry relative="1" as="geometry">
            <Array as="points">
              <mxPoint x="1360" y="431" />
              <mxPoint x="1360" y="400" />
              <mxPoint x="840" y="400" />
              <mxPoint x="840" y="431" />
            </Array>
          </mxGeometry>
        </mxCell>
        <mxCell id="HX8R5yzGGZMdF9-Stbwx-2" value="" style="shape=table;startSize=0;container=1;collapsible=0;childLayout=tableLayout;fillColor=#FAD9D5;strokeColor=#D0CEE2;fontColor=#1A1A1A;" parent="1" vertex="1">
          <mxGeometry x="879.94" y="580" width="120.06" height="40" as="geometry" />
        </mxCell>
        <mxCell id="HX8R5yzGGZMdF9-Stbwx-3" value="" style="shape=partialRectangle;collapsible=0;dropTarget=0;pointerEvents=0;fillColor=none;top=0;left=0;bottom=0;right=0;points=[[0,0.5],[1,0.5]];portConstraint=eastwest;strokeColor=#D0CEE2;fontColor=#1A1A1A;" parent="HX8R5yzGGZMdF9-Stbwx-2" vertex="1">
          <mxGeometry width="120.06" height="40" as="geometry" />
        </mxCell>
        <mxCell id="HX8R5yzGGZMdF9-Stbwx-4" value="*prev" style="shape=partialRectangle;html=1;whiteSpace=wrap;connectable=0;overflow=hidden;fillColor=none;top=0;left=0;bottom=0;right=0;strokeColor=#D0CEE2;fontColor=#1A1A1A;" parent="HX8R5yzGGZMdF9-Stbwx-3" vertex="1">
          <mxGeometry width="40" height="40" as="geometry">
            <mxRectangle width="40" height="40" as="alternateBounds" />
          </mxGeometry>
        </mxCell>
        <mxCell id="HX8R5yzGGZMdF9-Stbwx-5" value="L1" style="shape=partialRectangle;html=1;whiteSpace=wrap;connectable=0;overflow=hidden;fillColor=none;top=0;left=0;bottom=0;right=0;strokeColor=#D0CEE2;fontColor=#1A1A1A;" parent="HX8R5yzGGZMdF9-Stbwx-3" vertex="1">
          <mxGeometry x="40" width="40" height="40" as="geometry">
            <mxRectangle width="40" height="40" as="alternateBounds" />
          </mxGeometry>
        </mxCell>
        <mxCell id="HX8R5yzGGZMdF9-Stbwx-6" value="*next" style="shape=partialRectangle;html=1;whiteSpace=wrap;connectable=0;overflow=hidden;fillColor=none;top=0;left=0;bottom=0;right=0;strokeColor=#D0CEE2;fontColor=#1A1A1A;" parent="HX8R5yzGGZMdF9-Stbwx-3" vertex="1">
          <mxGeometry x="80" width="40" height="40" as="geometry">
            <mxRectangle width="40" height="40" as="alternateBounds" />
          </mxGeometry>
        </mxCell>
        <mxCell id="HX8R5yzGGZMdF9-Stbwx-7" value="" style="shape=table;startSize=0;container=1;collapsible=0;childLayout=tableLayout;fillColor=#FAD9D5;strokeColor=#D0CEE2;fontColor=#1A1A1A;" parent="1" vertex="1">
          <mxGeometry x="1080" y="580" width="120" height="40" as="geometry" />
        </mxCell>
        <mxCell id="HX8R5yzGGZMdF9-Stbwx-8" value="" style="shape=partialRectangle;collapsible=0;dropTarget=0;pointerEvents=0;fillColor=none;top=0;left=0;bottom=0;right=0;points=[[0,0.5],[1,0.5]];portConstraint=eastwest;strokeColor=#D0CEE2;fontColor=#1A1A1A;" parent="HX8R5yzGGZMdF9-Stbwx-7" vertex="1">
          <mxGeometry width="120" height="40" as="geometry" />
        </mxCell>
        <mxCell id="HX8R5yzGGZMdF9-Stbwx-9" value="*prev" style="shape=partialRectangle;html=1;whiteSpace=wrap;connectable=0;overflow=hidden;fillColor=none;top=0;left=0;bottom=0;right=0;strokeColor=#D0CEE2;fontColor=#1A1A1A;" parent="HX8R5yzGGZMdF9-Stbwx-8" vertex="1">
          <mxGeometry width="40" height="40" as="geometry">
            <mxRectangle width="40" height="40" as="alternateBounds" />
          </mxGeometry>
        </mxCell>
        <mxCell id="HX8R5yzGGZMdF9-Stbwx-10" value="head" style="shape=partialRectangle;html=1;whiteSpace=wrap;connectable=0;overflow=hidden;fillColor=none;top=0;left=0;bottom=0;right=0;strokeColor=#D0CEE2;fontColor=#1A1A1A;" parent="HX8R5yzGGZMdF9-Stbwx-8" vertex="1">
          <mxGeometry x="40" width="40" height="40" as="geometry">
            <mxRectangle width="40" height="40" as="alternateBounds" />
          </mxGeometry>
        </mxCell>
        <mxCell id="HX8R5yzGGZMdF9-Stbwx-11" value="*next" style="shape=partialRectangle;html=1;whiteSpace=wrap;connectable=0;overflow=hidden;fillColor=none;top=0;left=0;bottom=0;right=0;strokeColor=#D0CEE2;fontColor=#1A1A1A;" parent="HX8R5yzGGZMdF9-Stbwx-8" vertex="1">
          <mxGeometry x="80" width="40" height="40" as="geometry">
            <mxRectangle width="40" height="40" as="alternateBounds" />
          </mxGeometry>
        </mxCell>
        <mxCell id="4BsWTy4U4B5kvjyqjcPY-46" style="edgeStyle=orthogonalEdgeStyle;rounded=0;orthogonalLoop=1;jettySize=auto;html=1;exitX=1;exitY=0.5;exitDx=0;exitDy=0;fontSize=14;strokeColor=#09555B;fontColor=#1A1A1A;" edge="1" parent="HX8R5yzGGZMdF9-Stbwx-7" source="HX8R5yzGGZMdF9-Stbwx-8" target="HX8R5yzGGZMdF9-Stbwx-8">
          <mxGeometry relative="1" as="geometry" />
        </mxCell>
        <mxCell id="HX8R5yzGGZMdF9-Stbwx-12" style="edgeStyle=orthogonalEdgeStyle;rounded=0;orthogonalLoop=1;jettySize=auto;html=1;entryX=1.005;entryY=0.263;entryDx=0;entryDy=0;entryPerimeter=0;strokeColor=#09555B;fontColor=#1A1A1A;" parent="1" source="HX8R5yzGGZMdF9-Stbwx-8" target="HX8R5yzGGZMdF9-Stbwx-3" edge="1">
          <mxGeometry relative="1" as="geometry">
            <Array as="points">
              <mxPoint x="1120" y="591" />
            </Array>
            <mxPoint x="1160" y="591" as="sourcePoint" />
          </mxGeometry>
        </mxCell>
        <mxCell id="HX8R5yzGGZMdF9-Stbwx-14" style="edgeStyle=orthogonalEdgeStyle;rounded=0;orthogonalLoop=1;jettySize=auto;html=1;entryX=1.005;entryY=0.72;entryDx=0;entryDy=0;entryPerimeter=0;strokeColor=#09555B;fontColor=#1A1A1A;" parent="1" source="HX8R5yzGGZMdF9-Stbwx-3" target="HX8R5yzGGZMdF9-Stbwx-8" edge="1">
          <mxGeometry relative="1" as="geometry">
            <mxPoint x="1380" y="640" as="targetPoint" />
            <Array as="points">
              <mxPoint x="860" y="609" />
              <mxPoint x="860" y="640" />
              <mxPoint x="1220" y="640" />
              <mxPoint x="1220" y="609" />
            </Array>
            <mxPoint x="880" y="608" as="sourcePoint" />
          </mxGeometry>
        </mxCell>
        <mxCell id="HX8R5yzGGZMdF9-Stbwx-15" style="edgeStyle=orthogonalEdgeStyle;rounded=0;orthogonalLoop=1;jettySize=auto;html=1;exitX=1.005;exitY=0.28;exitDx=0;exitDy=0;exitPerimeter=0;strokeColor=#09555B;fontColor=#1A1A1A;" parent="1" source="HX8R5yzGGZMdF9-Stbwx-8" target="HX8R5yzGGZMdF9-Stbwx-3" edge="1">
          <mxGeometry relative="1" as="geometry">
            <Array as="points">
              <mxPoint x="1220" y="591" />
              <mxPoint x="1220" y="560" />
              <mxPoint x="860" y="560" />
              <mxPoint x="860" y="591" />
            </Array>
          </mxGeometry>
        </mxCell>
        <mxCell id="HX8R5yzGGZMdF9-Stbwx-17" value="&lt;div&gt;&lt;span&gt;&lt;font style=&quot;font-size: 14px&quot;&gt;空链表&lt;/font&gt;&lt;/span&gt;&lt;/div&gt;" style="text;html=1;strokeColor=none;fillColor=none;align=left;verticalAlign=middle;whiteSpace=wrap;rounded=0;fontColor=#1A1A1A;" parent="1" vertex="1">
          <mxGeometry x="840" y="200" width="80" height="40" as="geometry" />
        </mxCell>
        <mxCell id="HX8R5yzGGZMdF9-Stbwx-18" value="初始化链表" style="text;html=1;strokeColor=none;fillColor=none;align=left;verticalAlign=middle;whiteSpace=wrap;rounded=0;fontSize=14;fontColor=#1A1A1A;" parent="1" vertex="1">
          <mxGeometry x="80" y="-160" width="80" height="40" as="geometry" />
        </mxCell>
        <mxCell id="HX8R5yzGGZMdF9-Stbwx-26" value="&lt;font style=&quot;font-size: 14px&quot;&gt;添加元素&lt;/font&gt;" style="text;html=1;strokeColor=none;fillColor=none;align=left;verticalAlign=middle;whiteSpace=wrap;rounded=0;sketch=0;fontColor=#1A1A1A;" parent="1" vertex="1">
          <mxGeometry x="80" y="200" width="80" height="40" as="geometry" />
        </mxCell>
        <mxCell id="HX8R5yzGGZMdF9-Stbwx-27" value="&lt;pre style=&quot;background-color: #ffffff ; color: #000000 ; font-family: &amp;quot;jetbrains mono&amp;quot; , monospace ; font-size: 12.0pt&quot;&gt;&lt;span style=&quot;color: #5d6c79&quot;&gt;/**&lt;br&gt;&lt;/span&gt;&lt;span style=&quot;color: #5d6c79&quot;&gt; * &lt;/span&gt;&lt;span style=&quot;color: #5d6c79 ; font-family: &amp;quot;文泉驿等宽正黑&amp;quot; , monospace&quot;&gt;初始化一个&lt;/span&gt;&lt;span style=&quot;color: #5d6c79&quot;&gt; list_head &lt;/span&gt;&lt;span style=&quot;color: #5d6c79 ; font-family: &amp;quot;文泉驿等宽正黑&amp;quot; , monospace&quot;&gt;结构&lt;/span&gt;&lt;span style=&quot;color: #5d6c79&quot;&gt;&lt;br&gt;&lt;/span&gt;&lt;span style=&quot;color: #5d6c79&quot;&gt; * @param list &lt;/span&gt;&lt;span style=&quot;color: #5d6c79 ; font-family: &amp;quot;文泉驿等宽正黑&amp;quot; , monospace&quot;&gt;将被初始化的&lt;/span&gt;&lt;span style=&quot;color: #5d6c79&quot;&gt; list_head &lt;/span&gt;&lt;span style=&quot;color: #5d6c79 ; font-family: &amp;quot;文泉驿等宽正黑&amp;quot; , monospace&quot;&gt;结构&lt;/span&gt;&lt;span style=&quot;color: #5d6c79&quot;&gt;&lt;br&gt;&lt;/span&gt;&lt;span style=&quot;color: #5d6c79&quot;&gt; *&lt;br&gt;&lt;/span&gt;&lt;span style=&quot;color: #5d6c79&quot;&gt; * &lt;/span&gt;&lt;span style=&quot;color: #5d6c79 ; font-family: &amp;quot;文泉驿等宽正黑&amp;quot; , monospace&quot;&gt;初始化&lt;/span&gt;&lt;span style=&quot;color: #5d6c79&quot;&gt; list_head &lt;/span&gt;&lt;span style=&quot;color: #5d6c79 ; font-family: &amp;quot;文泉驿等宽正黑&amp;quot; , monospace&quot;&gt;指向它自己。如果它是一个表头，结果是一个空链表。&lt;/span&gt;&lt;span style=&quot;color: #5d6c79&quot;&gt;&lt;br&gt;&lt;/span&gt;&lt;span style=&quot;color: #5d6c79&quot;&gt; */&lt;br&gt;&lt;/span&gt;&lt;span style=&quot;color: #9b2393 ; font-weight: bold&quot;&gt;static inline void &lt;/span&gt;&lt;span style=&quot;color: #0f68a0&quot;&gt;INIT_LIST_HEAD&lt;/span&gt;(&lt;span style=&quot;color: #9b2393 ; font-weight: bold&quot;&gt;struct &lt;/span&gt;&lt;span style=&quot;color: #008080&quot;&gt;list_head &lt;/span&gt;*list)&lt;br&gt;{&lt;br&gt;       list-&amp;gt;&lt;span style=&quot;color: #660e7a&quot;&gt;next &lt;/span&gt;= list;&lt;br&gt;       list-&amp;gt;&lt;span style=&quot;color: #660e7a&quot;&gt;prev &lt;/span&gt;= list;&lt;br&gt;}&lt;/pre&gt;" style="text;whiteSpace=wrap;html=1;fontSize=14;fontColor=#1A1A1A;" parent="1" vertex="1">
          <mxGeometry x="80" y="-120" width="560" height="240" as="geometry" />
        </mxCell>
        <mxCell id="HX8R5yzGGZMdF9-Stbwx-31" value="" style="shape=flexArrow;endArrow=classic;html=1;rounded=1;sketch=0;fontColor=#1A1A1A;strokeColor=#09555B;curved=0;" parent="1" edge="1">
          <mxGeometry width="50" height="50" relative="1" as="geometry">
            <mxPoint x="1020" y="340" as="sourcePoint" />
            <mxPoint x="1020" y="390" as="targetPoint" />
          </mxGeometry>
        </mxCell>
        <mxCell id="HX8R5yzGGZMdF9-Stbwx-32" value="" style="shape=flexArrow;endArrow=classic;html=1;rounded=1;sketch=0;fontColor=#1A1A1A;strokeColor=#09555B;curved=0;" parent="1" edge="1">
          <mxGeometry width="50" height="50" relative="1" as="geometry">
            <mxPoint x="1020" y="500" as="sourcePoint" />
            <mxPoint x="1020" y="550" as="targetPoint" />
          </mxGeometry>
        </mxCell>
        <mxCell id="HX8R5yzGGZMdF9-Stbwx-33" value="初始状态" style="text;html=1;strokeColor=none;fillColor=none;align=left;verticalAlign=middle;whiteSpace=wrap;rounded=0;sketch=0;fontColor=#1A1A1A;" parent="1" vertex="1">
          <mxGeometry x="1040" y="240" width="80" height="40" as="geometry" />
        </mxCell>
        <mxCell id="HX8R5yzGGZMdF9-Stbwx-34" value="链接过程" style="text;html=1;strokeColor=none;fillColor=none;align=left;verticalAlign=middle;whiteSpace=wrap;rounded=0;sketch=0;fontColor=#1A1A1A;" parent="1" vertex="1">
          <mxGeometry x="1040" y="340" width="80" height="40" as="geometry" />
        </mxCell>
        <mxCell id="HX8R5yzGGZMdF9-Stbwx-35" value="最终结果" style="text;html=1;strokeColor=none;fillColor=none;align=left;verticalAlign=middle;whiteSpace=wrap;rounded=0;sketch=0;fontColor=#1A1A1A;" parent="1" vertex="1">
          <mxGeometry x="1040" y="500" width="80" height="40" as="geometry" />
        </mxCell>
        <mxCell id="4BsWTy4U4B5kvjyqjcPY-2" value="&lt;font style=&quot;font-size: 14px&quot;&gt;添加第二个元素&lt;/font&gt;" style="text;html=1;strokeColor=none;fillColor=none;align=left;verticalAlign=middle;whiteSpace=wrap;rounded=0;fontColor=#1A1A1A;" vertex="1" parent="1">
          <mxGeometry x="1040" y="660" width="120" height="40" as="geometry" />
        </mxCell>
        <mxCell id="4BsWTy4U4B5kvjyqjcPY-3" value="" style="shape=flexArrow;endArrow=classic;html=1;rounded=1;sketch=0;fontColor=#1A1A1A;strokeColor=#09555B;curved=0;" edge="1" parent="1">
          <mxGeometry width="50" height="50" relative="1" as="geometry">
            <mxPoint x="1020" y="660" as="sourcePoint" />
            <mxPoint x="1020" y="710" as="targetPoint" />
          </mxGeometry>
        </mxCell>
        <mxCell id="4BsWTy4U4B5kvjyqjcPY-4" value="" style="shape=table;startSize=0;container=1;collapsible=0;childLayout=tableLayout;fillColor=#FAD9D5;strokeColor=#D0CEE2;fontColor=#1A1A1A;" vertex="1" parent="1">
          <mxGeometry x="1040" y="740" width="120.09" height="40" as="geometry" />
        </mxCell>
        <mxCell id="4BsWTy4U4B5kvjyqjcPY-5" value="" style="shape=partialRectangle;collapsible=0;dropTarget=0;pointerEvents=0;fillColor=none;top=0;left=0;bottom=0;right=0;points=[[0,0.5],[1,0.5]];portConstraint=eastwest;strokeColor=#D0CEE2;fontColor=#1A1A1A;" vertex="1" parent="4BsWTy4U4B5kvjyqjcPY-4">
          <mxGeometry width="120.09" height="40" as="geometry" />
        </mxCell>
        <mxCell id="4BsWTy4U4B5kvjyqjcPY-6" value="*prev" style="shape=partialRectangle;html=1;whiteSpace=wrap;connectable=0;overflow=hidden;fillColor=none;top=0;left=0;bottom=0;right=0;strokeColor=#D0CEE2;fontColor=#1A1A1A;" vertex="1" parent="4BsWTy4U4B5kvjyqjcPY-5">
          <mxGeometry width="40" height="40" as="geometry">
            <mxRectangle width="40" height="40" as="alternateBounds" />
          </mxGeometry>
        </mxCell>
        <mxCell id="4BsWTy4U4B5kvjyqjcPY-7" value="L1" style="shape=partialRectangle;html=1;whiteSpace=wrap;connectable=0;overflow=hidden;fillColor=none;top=0;left=0;bottom=0;right=0;strokeColor=#D0CEE2;fontColor=#1A1A1A;" vertex="1" parent="4BsWTy4U4B5kvjyqjcPY-5">
          <mxGeometry x="40" width="40" height="40" as="geometry">
            <mxRectangle width="40" height="40" as="alternateBounds" />
          </mxGeometry>
        </mxCell>
        <mxCell id="4BsWTy4U4B5kvjyqjcPY-8" value="*next" style="shape=partialRectangle;html=1;whiteSpace=wrap;connectable=0;overflow=hidden;fillColor=none;top=0;left=0;bottom=0;right=0;strokeColor=#D0CEE2;fontColor=#1A1A1A;" vertex="1" parent="4BsWTy4U4B5kvjyqjcPY-5">
          <mxGeometry x="80" width="40" height="40" as="geometry">
            <mxRectangle width="40" height="40" as="alternateBounds" />
          </mxGeometry>
        </mxCell>
        <mxCell id="4BsWTy4U4B5kvjyqjcPY-9" value="" style="shape=table;startSize=0;container=1;collapsible=0;childLayout=tableLayout;fillColor=#FAD9D5;strokeColor=#D0CEE2;fontColor=#1A1A1A;" vertex="1" parent="1">
          <mxGeometry x="1241" y="740" width="119" height="40" as="geometry" />
        </mxCell>
        <mxCell id="4BsWTy4U4B5kvjyqjcPY-10" value="" style="shape=partialRectangle;collapsible=0;dropTarget=0;pointerEvents=0;fillColor=none;top=0;left=0;bottom=0;right=0;points=[[0,0.5],[1,0.5]];portConstraint=eastwest;strokeColor=#D0CEE2;fontColor=#1A1A1A;" vertex="1" parent="4BsWTy4U4B5kvjyqjcPY-9">
          <mxGeometry width="119" height="40" as="geometry" />
        </mxCell>
        <mxCell id="4BsWTy4U4B5kvjyqjcPY-11" value="*prev" style="shape=partialRectangle;html=1;whiteSpace=wrap;connectable=0;overflow=hidden;fillColor=none;top=0;left=0;bottom=0;right=0;strokeColor=#D0CEE2;fontColor=#1A1A1A;" vertex="1" parent="4BsWTy4U4B5kvjyqjcPY-10">
          <mxGeometry width="39" height="40" as="geometry">
            <mxRectangle width="39" height="40" as="alternateBounds" />
          </mxGeometry>
        </mxCell>
        <mxCell id="4BsWTy4U4B5kvjyqjcPY-12" value="head" style="shape=partialRectangle;html=1;whiteSpace=wrap;connectable=0;overflow=hidden;fillColor=none;top=0;left=0;bottom=0;right=0;strokeColor=#D0CEE2;fontColor=#1A1A1A;" vertex="1" parent="4BsWTy4U4B5kvjyqjcPY-10">
          <mxGeometry x="39" width="40" height="40" as="geometry">
            <mxRectangle width="40" height="40" as="alternateBounds" />
          </mxGeometry>
        </mxCell>
        <mxCell id="4BsWTy4U4B5kvjyqjcPY-13" value="*next" style="shape=partialRectangle;html=1;whiteSpace=wrap;connectable=0;overflow=hidden;fillColor=none;top=0;left=0;bottom=0;right=0;strokeColor=#D0CEE2;fontColor=#1A1A1A;" vertex="1" parent="4BsWTy4U4B5kvjyqjcPY-10">
          <mxGeometry x="79" width="40" height="40" as="geometry">
            <mxRectangle width="40" height="40" as="alternateBounds" />
          </mxGeometry>
        </mxCell>
        <mxCell id="4BsWTy4U4B5kvjyqjcPY-14" style="edgeStyle=orthogonalEdgeStyle;rounded=0;orthogonalLoop=1;jettySize=auto;html=1;entryX=1.005;entryY=0.263;entryDx=0;entryDy=0;entryPerimeter=0;strokeColor=#09555B;fontColor=#1A1A1A;" edge="1" parent="1" source="4BsWTy4U4B5kvjyqjcPY-10" target="4BsWTy4U4B5kvjyqjcPY-5">
          <mxGeometry relative="1" as="geometry">
            <Array as="points">
              <mxPoint x="1279.97" y="751" />
            </Array>
            <mxPoint x="1319.97" y="751" as="sourcePoint" />
          </mxGeometry>
        </mxCell>
        <mxCell id="4BsWTy4U4B5kvjyqjcPY-16" style="edgeStyle=orthogonalEdgeStyle;rounded=0;orthogonalLoop=1;jettySize=auto;html=1;entryX=1.005;entryY=0.72;entryDx=0;entryDy=0;entryPerimeter=0;strokeColor=#09555B;fontColor=#1A1A1A;" edge="1" parent="1" source="4BsWTy4U4B5kvjyqjcPY-5" target="4BsWTy4U4B5kvjyqjcPY-10">
          <mxGeometry relative="1" as="geometry">
            <mxPoint x="1539.97" y="800" as="targetPoint" />
            <Array as="points">
              <mxPoint x="1020" y="768" />
              <mxPoint x="1020" y="800" />
              <mxPoint x="1380" y="800" />
              <mxPoint x="1380" y="769" />
            </Array>
            <mxPoint x="1039.97" y="768" as="sourcePoint" />
          </mxGeometry>
        </mxCell>
        <mxCell id="4BsWTy4U4B5kvjyqjcPY-17" style="edgeStyle=orthogonalEdgeStyle;rounded=0;orthogonalLoop=1;jettySize=auto;html=1;exitX=1.005;exitY=0.28;exitDx=0;exitDy=0;exitPerimeter=0;strokeColor=#09555B;fontColor=#1A1A1A;" edge="1" parent="1" source="4BsWTy4U4B5kvjyqjcPY-10" target="4BsWTy4U4B5kvjyqjcPY-5">
          <mxGeometry relative="1" as="geometry">
            <Array as="points">
              <mxPoint x="1380" y="751" />
              <mxPoint x="1380" y="720" />
              <mxPoint x="1020" y="720" />
              <mxPoint x="1020" y="751" />
            </Array>
          </mxGeometry>
        </mxCell>
        <mxCell id="4BsWTy4U4B5kvjyqjcPY-18" value="" style="shape=table;startSize=0;container=1;collapsible=0;childLayout=tableLayout;fillColor=#FAD9D5;strokeColor=#D0CEE2;fontColor=#1A1A1A;" vertex="1" parent="1">
          <mxGeometry x="840" y="740" width="120" height="40" as="geometry" />
        </mxCell>
        <mxCell id="4BsWTy4U4B5kvjyqjcPY-19" value="" style="shape=partialRectangle;collapsible=0;dropTarget=0;pointerEvents=0;fillColor=none;top=0;left=0;bottom=0;right=0;points=[[0,0.5],[1,0.5]];portConstraint=eastwest;strokeColor=#D0CEE2;fontColor=#1A1A1A;" vertex="1" parent="4BsWTy4U4B5kvjyqjcPY-18">
          <mxGeometry width="120" height="40" as="geometry" />
        </mxCell>
        <mxCell id="4BsWTy4U4B5kvjyqjcPY-20" value="*prev" style="shape=partialRectangle;html=1;whiteSpace=wrap;connectable=0;overflow=hidden;fillColor=none;top=0;left=0;bottom=0;right=0;strokeColor=#D0CEE2;fontColor=#1A1A1A;" vertex="1" parent="4BsWTy4U4B5kvjyqjcPY-19">
          <mxGeometry width="40" height="40" as="geometry">
            <mxRectangle width="40" height="40" as="alternateBounds" />
          </mxGeometry>
        </mxCell>
        <mxCell id="4BsWTy4U4B5kvjyqjcPY-21" value="&lt;font color=&quot;#ff0000&quot;&gt;new&lt;/font&gt;" style="shape=partialRectangle;html=1;whiteSpace=wrap;connectable=0;overflow=hidden;fillColor=none;top=0;left=0;bottom=0;right=0;strokeColor=#D0CEE2;fontColor=#1A1A1A;" vertex="1" parent="4BsWTy4U4B5kvjyqjcPY-19">
          <mxGeometry x="40" width="40" height="40" as="geometry">
            <mxRectangle width="40" height="40" as="alternateBounds" />
          </mxGeometry>
        </mxCell>
        <mxCell id="4BsWTy4U4B5kvjyqjcPY-22" value="*next" style="shape=partialRectangle;html=1;whiteSpace=wrap;connectable=0;overflow=hidden;fillColor=none;top=0;left=0;bottom=0;right=0;strokeColor=#D0CEE2;fontColor=#1A1A1A;" vertex="1" parent="4BsWTy4U4B5kvjyqjcPY-19">
          <mxGeometry x="80" width="40" height="40" as="geometry">
            <mxRectangle width="40" height="40" as="alternateBounds" />
          </mxGeometry>
        </mxCell>
        <mxCell id="4BsWTy4U4B5kvjyqjcPY-23" value="" style="shape=flexArrow;endArrow=classic;html=1;rounded=1;sketch=0;fontColor=#1A1A1A;strokeColor=#09555B;curved=0;" edge="1" parent="1">
          <mxGeometry width="50" height="50" relative="1" as="geometry">
            <mxPoint x="1019.11" y="820" as="sourcePoint" />
            <mxPoint x="1019.11" y="870" as="targetPoint" />
          </mxGeometry>
        </mxCell>
        <mxCell id="4BsWTy4U4B5kvjyqjcPY-26" value="链接过程" style="text;html=1;strokeColor=none;fillColor=none;align=left;verticalAlign=middle;whiteSpace=wrap;rounded=0;sketch=0;fontColor=#1A1A1A;" vertex="1" parent="1">
          <mxGeometry x="1040" y="820" width="80" height="40" as="geometry" />
        </mxCell>
        <mxCell id="4BsWTy4U4B5kvjyqjcPY-41" value="" style="shape=table;startSize=0;container=1;collapsible=0;childLayout=tableLayout;fillColor=#FAD9D5;strokeColor=#D0CEE2;fontColor=#1A1A1A;" vertex="1" parent="1">
          <mxGeometry x="880" y="900" width="120" height="40" as="geometry" />
        </mxCell>
        <mxCell id="4BsWTy4U4B5kvjyqjcPY-42" value="" style="shape=partialRectangle;collapsible=0;dropTarget=0;pointerEvents=0;fillColor=none;top=0;left=0;bottom=0;right=0;points=[[0,0.5],[1,0.5]];portConstraint=eastwest;strokeColor=#D0CEE2;fontColor=#1A1A1A;" vertex="1" parent="4BsWTy4U4B5kvjyqjcPY-41">
          <mxGeometry width="120" height="40" as="geometry" />
        </mxCell>
        <mxCell id="4BsWTy4U4B5kvjyqjcPY-43" value="*prev" style="shape=partialRectangle;html=1;whiteSpace=wrap;connectable=0;overflow=hidden;fillColor=none;top=0;left=0;bottom=0;right=0;strokeColor=#D0CEE2;fontColor=#1A1A1A;" vertex="1" parent="4BsWTy4U4B5kvjyqjcPY-42">
          <mxGeometry width="40" height="40" as="geometry">
            <mxRectangle width="40" height="40" as="alternateBounds" />
          </mxGeometry>
        </mxCell>
        <mxCell id="4BsWTy4U4B5kvjyqjcPY-44" value="&lt;font color=&quot;#ff0000&quot;&gt;new&lt;/font&gt;" style="shape=partialRectangle;html=1;whiteSpace=wrap;connectable=0;overflow=hidden;fillColor=none;top=0;left=0;bottom=0;right=0;strokeColor=#D0CEE2;fontColor=#1A1A1A;" vertex="1" parent="4BsWTy4U4B5kvjyqjcPY-42">
          <mxGeometry x="40" width="40" height="40" as="geometry">
            <mxRectangle width="40" height="40" as="alternateBounds" />
          </mxGeometry>
        </mxCell>
        <mxCell id="4BsWTy4U4B5kvjyqjcPY-45" value="*next" style="shape=partialRectangle;html=1;whiteSpace=wrap;connectable=0;overflow=hidden;fillColor=none;top=0;left=0;bottom=0;right=0;strokeColor=#D0CEE2;fontColor=#1A1A1A;" vertex="1" parent="4BsWTy4U4B5kvjyqjcPY-42">
          <mxGeometry x="80" width="40" height="40" as="geometry">
            <mxRectangle width="40" height="40" as="alternateBounds" />
          </mxGeometry>
        </mxCell>
        <mxCell id="4BsWTy4U4B5kvjyqjcPY-51" value="" style="endArrow=classic;html=1;rounded=1;sketch=0;fontColor=#1A1A1A;strokeColor=#09555B;curved=0;entryX=0.005;entryY=0.755;entryDx=0;entryDy=0;entryPerimeter=0;exitX=1.012;exitY=0.755;exitDx=0;exitDy=0;exitPerimeter=0;" edge="1" parent="1" source="HX8R5yzGGZMdF9-Stbwx-3" target="HX8R5yzGGZMdF9-Stbwx-8">
          <mxGeometry width="50" height="50" relative="1" as="geometry">
            <mxPoint x="1000" y="610" as="sourcePoint" />
            <mxPoint x="1080" y="610" as="targetPoint" />
          </mxGeometry>
        </mxCell>
        <mxCell id="4BsWTy4U4B5kvjyqjcPY-55" value="" style="endArrow=classic;html=1;rounded=1;sketch=0;fontColor=#1A1A1A;strokeColor=#09555B;curved=0;entryX=0;entryY=0.765;entryDx=0;entryDy=0;entryPerimeter=0;exitX=1.011;exitY=0.765;exitDx=0;exitDy=0;exitPerimeter=0;" edge="1" parent="1" source="4BsWTy4U4B5kvjyqjcPY-5" target="4BsWTy4U4B5kvjyqjcPY-10">
          <mxGeometry width="50" height="50" relative="1" as="geometry">
            <mxPoint x="1160" y="771" as="sourcePoint" />
            <mxPoint x="1210" y="720" as="targetPoint" />
          </mxGeometry>
        </mxCell>
        <mxCell id="4BsWTy4U4B5kvjyqjcPY-56" value="" style="shape=table;startSize=0;container=1;collapsible=0;childLayout=tableLayout;fillColor=#FAD9D5;strokeColor=#D0CEE2;fontColor=#1A1A1A;" vertex="1" parent="1">
          <mxGeometry x="1079.91" y="900" width="120.09" height="40" as="geometry" />
        </mxCell>
        <mxCell id="4BsWTy4U4B5kvjyqjcPY-57" value="" style="shape=partialRectangle;collapsible=0;dropTarget=0;pointerEvents=0;fillColor=none;top=0;left=0;bottom=0;right=0;points=[[0,0.5],[1,0.5]];portConstraint=eastwest;strokeColor=#D0CEE2;fontColor=#1A1A1A;" vertex="1" parent="4BsWTy4U4B5kvjyqjcPY-56">
          <mxGeometry width="120.09" height="40" as="geometry" />
        </mxCell>
        <mxCell id="4BsWTy4U4B5kvjyqjcPY-58" value="*prev" style="shape=partialRectangle;html=1;whiteSpace=wrap;connectable=0;overflow=hidden;fillColor=none;top=0;left=0;bottom=0;right=0;strokeColor=#D0CEE2;fontColor=#1A1A1A;" vertex="1" parent="4BsWTy4U4B5kvjyqjcPY-57">
          <mxGeometry width="40" height="40" as="geometry">
            <mxRectangle width="40" height="40" as="alternateBounds" />
          </mxGeometry>
        </mxCell>
        <mxCell id="4BsWTy4U4B5kvjyqjcPY-59" value="&lt;font color=&quot;#ff0000&quot;&gt;next&lt;/font&gt;" style="shape=partialRectangle;html=1;whiteSpace=wrap;connectable=0;overflow=hidden;fillColor=none;top=0;left=0;bottom=0;right=0;strokeColor=#D0CEE2;fontColor=#1A1A1A;" vertex="1" parent="4BsWTy4U4B5kvjyqjcPY-57">
          <mxGeometry x="40" width="40" height="40" as="geometry">
            <mxRectangle width="40" height="40" as="alternateBounds" />
          </mxGeometry>
        </mxCell>
        <mxCell id="4BsWTy4U4B5kvjyqjcPY-60" value="*next" style="shape=partialRectangle;html=1;whiteSpace=wrap;connectable=0;overflow=hidden;fillColor=none;top=0;left=0;bottom=0;right=0;strokeColor=#D0CEE2;fontColor=#1A1A1A;" vertex="1" parent="4BsWTy4U4B5kvjyqjcPY-57">
          <mxGeometry x="80" width="40" height="40" as="geometry">
            <mxRectangle width="40" height="40" as="alternateBounds" />
          </mxGeometry>
        </mxCell>
        <mxCell id="4BsWTy4U4B5kvjyqjcPY-61" value="" style="shape=table;startSize=0;container=1;collapsible=0;childLayout=tableLayout;fillColor=#FAD9D5;strokeColor=#D0CEE2;fontColor=#1A1A1A;" vertex="1" parent="1">
          <mxGeometry x="1281" y="900" width="119" height="40" as="geometry" />
        </mxCell>
        <mxCell id="4BsWTy4U4B5kvjyqjcPY-62" value="" style="shape=partialRectangle;collapsible=0;dropTarget=0;pointerEvents=0;fillColor=none;top=0;left=0;bottom=0;right=0;points=[[0,0.5],[1,0.5]];portConstraint=eastwest;strokeColor=#D0CEE2;fontColor=#1A1A1A;" vertex="1" parent="4BsWTy4U4B5kvjyqjcPY-61">
          <mxGeometry width="119" height="40" as="geometry" />
        </mxCell>
        <mxCell id="4BsWTy4U4B5kvjyqjcPY-63" value="*prev" style="shape=partialRectangle;html=1;whiteSpace=wrap;connectable=0;overflow=hidden;fillColor=none;top=0;left=0;bottom=0;right=0;strokeColor=#D0CEE2;fontColor=#1A1A1A;" vertex="1" parent="4BsWTy4U4B5kvjyqjcPY-62">
          <mxGeometry width="39" height="40" as="geometry">
            <mxRectangle width="39" height="40" as="alternateBounds" />
          </mxGeometry>
        </mxCell>
        <mxCell id="4BsWTy4U4B5kvjyqjcPY-64" value="&lt;font color=&quot;#ff0000&quot;&gt;prev&lt;/font&gt;" style="shape=partialRectangle;html=1;whiteSpace=wrap;connectable=0;overflow=hidden;fillColor=none;top=0;left=0;bottom=0;right=0;strokeColor=#D0CEE2;fontColor=#1A1A1A;" vertex="1" parent="4BsWTy4U4B5kvjyqjcPY-62">
          <mxGeometry x="39" width="40" height="40" as="geometry">
            <mxRectangle width="40" height="40" as="alternateBounds" />
          </mxGeometry>
        </mxCell>
        <mxCell id="4BsWTy4U4B5kvjyqjcPY-65" value="*next" style="shape=partialRectangle;html=1;whiteSpace=wrap;connectable=0;overflow=hidden;fillColor=none;top=0;left=0;bottom=0;right=0;strokeColor=#D0CEE2;fontColor=#1A1A1A;" vertex="1" parent="4BsWTy4U4B5kvjyqjcPY-62">
          <mxGeometry x="79" width="40" height="40" as="geometry">
            <mxRectangle width="40" height="40" as="alternateBounds" />
          </mxGeometry>
        </mxCell>
        <mxCell id="4BsWTy4U4B5kvjyqjcPY-66" style="edgeStyle=orthogonalEdgeStyle;rounded=0;orthogonalLoop=1;jettySize=auto;html=1;entryX=1.005;entryY=0.263;entryDx=0;entryDy=0;entryPerimeter=0;strokeColor=#09555B;fontColor=#1A1A1A;" edge="1" parent="1" source="4BsWTy4U4B5kvjyqjcPY-62" target="4BsWTy4U4B5kvjyqjcPY-57">
          <mxGeometry relative="1" as="geometry">
            <Array as="points">
              <mxPoint x="1319.97" y="911" />
            </Array>
            <mxPoint x="1359.97" y="911" as="sourcePoint" />
          </mxGeometry>
        </mxCell>
        <mxCell id="4BsWTy4U4B5kvjyqjcPY-67" style="edgeStyle=orthogonalEdgeStyle;rounded=0;orthogonalLoop=1;jettySize=auto;html=1;entryX=1.005;entryY=0.72;entryDx=0;entryDy=0;entryPerimeter=0;strokeColor=#09555B;fontColor=#1A1A1A;exitX=0.001;exitY=0.711;exitDx=0;exitDy=0;exitPerimeter=0;" edge="1" parent="1" source="4BsWTy4U4B5kvjyqjcPY-42" target="4BsWTy4U4B5kvjyqjcPY-62">
          <mxGeometry relative="1" as="geometry">
            <mxPoint x="1579.97" y="960" as="targetPoint" />
            <Array as="points">
              <mxPoint x="860" y="928" />
              <mxPoint x="860" y="960" />
              <mxPoint x="1420" y="960" />
              <mxPoint x="1420" y="929" />
            </Array>
            <mxPoint x="1079.97" y="928" as="sourcePoint" />
          </mxGeometry>
        </mxCell>
        <mxCell id="4BsWTy4U4B5kvjyqjcPY-68" style="edgeStyle=orthogonalEdgeStyle;rounded=0;orthogonalLoop=1;jettySize=auto;html=1;exitX=1.005;exitY=0.28;exitDx=0;exitDy=0;exitPerimeter=0;strokeColor=#09555B;fontColor=#1A1A1A;" edge="1" parent="1" source="4BsWTy4U4B5kvjyqjcPY-62" target="4BsWTy4U4B5kvjyqjcPY-42">
          <mxGeometry relative="1" as="geometry">
            <Array as="points">
              <mxPoint x="1420" y="911" />
              <mxPoint x="1420" y="880" />
              <mxPoint x="860" y="880" />
              <mxPoint x="860" y="911" />
            </Array>
          </mxGeometry>
        </mxCell>
        <mxCell id="4BsWTy4U4B5kvjyqjcPY-69" value="" style="endArrow=classic;html=1;rounded=1;sketch=0;fontColor=#1A1A1A;strokeColor=#09555B;curved=0;entryX=0;entryY=0.765;entryDx=0;entryDy=0;entryPerimeter=0;exitX=1.011;exitY=0.765;exitDx=0;exitDy=0;exitPerimeter=0;" edge="1" parent="1" source="4BsWTy4U4B5kvjyqjcPY-57" target="4BsWTy4U4B5kvjyqjcPY-62">
          <mxGeometry width="50" height="50" relative="1" as="geometry">
            <mxPoint x="1200" y="931" as="sourcePoint" />
            <mxPoint x="1250" y="880" as="targetPoint" />
          </mxGeometry>
        </mxCell>
        <mxCell id="4BsWTy4U4B5kvjyqjcPY-72" value="" style="endArrow=classic;html=1;rounded=1;sketch=0;fontColor=#FF0000;strokeColor=#09555B;curved=0;" edge="1" parent="1">
          <mxGeometry width="50" height="50" relative="1" as="geometry">
            <mxPoint x="999.91" y="910" as="sourcePoint" />
            <mxPoint x="1079.91" y="910" as="targetPoint" />
            <Array as="points">
              <mxPoint x="1042.91" y="910" />
              <mxPoint x="1079.91" y="910" />
            </Array>
          </mxGeometry>
        </mxCell>
        <mxCell id="4BsWTy4U4B5kvjyqjcPY-74" value="" style="endArrow=classic;html=1;rounded=1;sketch=0;fontColor=#FF0000;strokeColor=#09555B;curved=0;entryX=1.011;entryY=0.754;entryDx=0;entryDy=0;entryPerimeter=0;" edge="1" parent="1" target="4BsWTy4U4B5kvjyqjcPY-42">
          <mxGeometry width="50" height="50" relative="1" as="geometry">
            <mxPoint x="1080" y="930" as="sourcePoint" />
            <mxPoint x="1130" y="880" as="targetPoint" />
          </mxGeometry>
        </mxCell>
        <mxCell id="4BsWTy4U4B5kvjyqjcPY-75" value="" style="shape=table;startSize=0;container=1;collapsible=0;childLayout=tableLayout;fillColor=#FAD9D5;strokeColor=#D0CEE2;fontColor=#1A1A1A;" vertex="1" parent="1">
          <mxGeometry x="880" y="1060" width="120" height="40" as="geometry" />
        </mxCell>
        <mxCell id="4BsWTy4U4B5kvjyqjcPY-76" value="" style="shape=partialRectangle;collapsible=0;dropTarget=0;pointerEvents=0;fillColor=none;top=0;left=0;bottom=0;right=0;points=[[0,0.5],[1,0.5]];portConstraint=eastwest;strokeColor=#D0CEE2;fontColor=#1A1A1A;" vertex="1" parent="4BsWTy4U4B5kvjyqjcPY-75">
          <mxGeometry width="120" height="40" as="geometry" />
        </mxCell>
        <mxCell id="4BsWTy4U4B5kvjyqjcPY-77" value="*prev" style="shape=partialRectangle;html=1;whiteSpace=wrap;connectable=0;overflow=hidden;fillColor=none;top=0;left=0;bottom=0;right=0;strokeColor=#D0CEE2;fontColor=#1A1A1A;" vertex="1" parent="4BsWTy4U4B5kvjyqjcPY-76">
          <mxGeometry width="40" height="40" as="geometry">
            <mxRectangle width="40" height="40" as="alternateBounds" />
          </mxGeometry>
        </mxCell>
        <mxCell id="4BsWTy4U4B5kvjyqjcPY-78" value="&lt;font color=&quot;#000000&quot;&gt;L2&lt;/font&gt;" style="shape=partialRectangle;html=1;whiteSpace=wrap;connectable=0;overflow=hidden;fillColor=none;top=0;left=0;bottom=0;right=0;strokeColor=#D0CEE2;fontColor=#1A1A1A;" vertex="1" parent="4BsWTy4U4B5kvjyqjcPY-76">
          <mxGeometry x="40" width="40" height="40" as="geometry">
            <mxRectangle width="40" height="40" as="alternateBounds" />
          </mxGeometry>
        </mxCell>
        <mxCell id="4BsWTy4U4B5kvjyqjcPY-79" value="*next" style="shape=partialRectangle;html=1;whiteSpace=wrap;connectable=0;overflow=hidden;fillColor=none;top=0;left=0;bottom=0;right=0;strokeColor=#D0CEE2;fontColor=#1A1A1A;" vertex="1" parent="4BsWTy4U4B5kvjyqjcPY-76">
          <mxGeometry x="80" width="40" height="40" as="geometry">
            <mxRectangle width="40" height="40" as="alternateBounds" />
          </mxGeometry>
        </mxCell>
        <mxCell id="4BsWTy4U4B5kvjyqjcPY-80" value="" style="shape=table;startSize=0;container=1;collapsible=0;childLayout=tableLayout;fillColor=#FAD9D5;strokeColor=#D0CEE2;fontColor=#1A1A1A;" vertex="1" parent="1">
          <mxGeometry x="1079.91" y="1060" width="120.09" height="40" as="geometry" />
        </mxCell>
        <mxCell id="4BsWTy4U4B5kvjyqjcPY-81" value="" style="shape=partialRectangle;collapsible=0;dropTarget=0;pointerEvents=0;fillColor=none;top=0;left=0;bottom=0;right=0;points=[[0,0.5],[1,0.5]];portConstraint=eastwest;strokeColor=#D0CEE2;fontColor=#1A1A1A;" vertex="1" parent="4BsWTy4U4B5kvjyqjcPY-80">
          <mxGeometry width="120.09" height="40" as="geometry" />
        </mxCell>
        <mxCell id="4BsWTy4U4B5kvjyqjcPY-82" value="*prev" style="shape=partialRectangle;html=1;whiteSpace=wrap;connectable=0;overflow=hidden;fillColor=none;top=0;left=0;bottom=0;right=0;strokeColor=#D0CEE2;fontColor=#1A1A1A;" vertex="1" parent="4BsWTy4U4B5kvjyqjcPY-81">
          <mxGeometry width="40" height="40" as="geometry">
            <mxRectangle width="40" height="40" as="alternateBounds" />
          </mxGeometry>
        </mxCell>
        <mxCell id="4BsWTy4U4B5kvjyqjcPY-83" value="&lt;font color=&quot;#000000&quot;&gt;L1&lt;/font&gt;" style="shape=partialRectangle;html=1;whiteSpace=wrap;connectable=0;overflow=hidden;fillColor=none;top=0;left=0;bottom=0;right=0;strokeColor=#D0CEE2;fontColor=#1A1A1A;" vertex="1" parent="4BsWTy4U4B5kvjyqjcPY-81">
          <mxGeometry x="40" width="40" height="40" as="geometry">
            <mxRectangle width="40" height="40" as="alternateBounds" />
          </mxGeometry>
        </mxCell>
        <mxCell id="4BsWTy4U4B5kvjyqjcPY-84" value="*next" style="shape=partialRectangle;html=1;whiteSpace=wrap;connectable=0;overflow=hidden;fillColor=none;top=0;left=0;bottom=0;right=0;strokeColor=#D0CEE2;fontColor=#1A1A1A;" vertex="1" parent="4BsWTy4U4B5kvjyqjcPY-81">
          <mxGeometry x="80" width="40" height="40" as="geometry">
            <mxRectangle width="40" height="40" as="alternateBounds" />
          </mxGeometry>
        </mxCell>
        <mxCell id="4BsWTy4U4B5kvjyqjcPY-85" value="" style="shape=table;startSize=0;container=1;collapsible=0;childLayout=tableLayout;fillColor=#FAD9D5;strokeColor=#D0CEE2;fontColor=#1A1A1A;" vertex="1" parent="1">
          <mxGeometry x="1281" y="1060" width="119" height="40" as="geometry" />
        </mxCell>
        <mxCell id="4BsWTy4U4B5kvjyqjcPY-86" value="" style="shape=partialRectangle;collapsible=0;dropTarget=0;pointerEvents=0;fillColor=none;top=0;left=0;bottom=0;right=0;points=[[0,0.5],[1,0.5]];portConstraint=eastwest;strokeColor=#D0CEE2;fontColor=#1A1A1A;" vertex="1" parent="4BsWTy4U4B5kvjyqjcPY-85">
          <mxGeometry width="119" height="40" as="geometry" />
        </mxCell>
        <mxCell id="4BsWTy4U4B5kvjyqjcPY-87" value="*prev" style="shape=partialRectangle;html=1;whiteSpace=wrap;connectable=0;overflow=hidden;fillColor=none;top=0;left=0;bottom=0;right=0;strokeColor=#D0CEE2;fontColor=#1A1A1A;" vertex="1" parent="4BsWTy4U4B5kvjyqjcPY-86">
          <mxGeometry width="39" height="40" as="geometry">
            <mxRectangle width="39" height="40" as="alternateBounds" />
          </mxGeometry>
        </mxCell>
        <mxCell id="4BsWTy4U4B5kvjyqjcPY-88" value="&lt;font color=&quot;#000000&quot;&gt;head&lt;/font&gt;" style="shape=partialRectangle;html=1;whiteSpace=wrap;connectable=0;overflow=hidden;fillColor=none;top=0;left=0;bottom=0;right=0;strokeColor=#D0CEE2;fontColor=#1A1A1A;" vertex="1" parent="4BsWTy4U4B5kvjyqjcPY-86">
          <mxGeometry x="39" width="40" height="40" as="geometry">
            <mxRectangle width="40" height="40" as="alternateBounds" />
          </mxGeometry>
        </mxCell>
        <mxCell id="4BsWTy4U4B5kvjyqjcPY-89" value="*next" style="shape=partialRectangle;html=1;whiteSpace=wrap;connectable=0;overflow=hidden;fillColor=none;top=0;left=0;bottom=0;right=0;strokeColor=#D0CEE2;fontColor=#1A1A1A;" vertex="1" parent="4BsWTy4U4B5kvjyqjcPY-86">
          <mxGeometry x="79" width="40" height="40" as="geometry">
            <mxRectangle width="40" height="40" as="alternateBounds" />
          </mxGeometry>
        </mxCell>
        <mxCell id="4BsWTy4U4B5kvjyqjcPY-90" style="edgeStyle=orthogonalEdgeStyle;rounded=0;orthogonalLoop=1;jettySize=auto;html=1;entryX=1.005;entryY=0.263;entryDx=0;entryDy=0;entryPerimeter=0;strokeColor=#09555B;fontColor=#1A1A1A;" edge="1" parent="1" source="4BsWTy4U4B5kvjyqjcPY-86" target="4BsWTy4U4B5kvjyqjcPY-81">
          <mxGeometry relative="1" as="geometry">
            <Array as="points">
              <mxPoint x="1319.97" y="1071" />
            </Array>
            <mxPoint x="1359.97" y="1071" as="sourcePoint" />
          </mxGeometry>
        </mxCell>
        <mxCell id="4BsWTy4U4B5kvjyqjcPY-91" style="edgeStyle=orthogonalEdgeStyle;rounded=0;orthogonalLoop=1;jettySize=auto;html=1;entryX=1.005;entryY=0.72;entryDx=0;entryDy=0;entryPerimeter=0;strokeColor=#09555B;fontColor=#1A1A1A;exitX=0.001;exitY=0.711;exitDx=0;exitDy=0;exitPerimeter=0;" edge="1" parent="1" source="4BsWTy4U4B5kvjyqjcPY-76" target="4BsWTy4U4B5kvjyqjcPY-86">
          <mxGeometry relative="1" as="geometry">
            <mxPoint x="1579.97" y="1120" as="targetPoint" />
            <Array as="points">
              <mxPoint x="860" y="1088" />
              <mxPoint x="860" y="1120" />
              <mxPoint x="1420" y="1120" />
              <mxPoint x="1420" y="1089" />
            </Array>
            <mxPoint x="1079.97" y="1088" as="sourcePoint" />
          </mxGeometry>
        </mxCell>
        <mxCell id="4BsWTy4U4B5kvjyqjcPY-92" style="edgeStyle=orthogonalEdgeStyle;rounded=0;orthogonalLoop=1;jettySize=auto;html=1;exitX=1.005;exitY=0.28;exitDx=0;exitDy=0;exitPerimeter=0;strokeColor=#09555B;fontColor=#1A1A1A;" edge="1" parent="1" source="4BsWTy4U4B5kvjyqjcPY-86" target="4BsWTy4U4B5kvjyqjcPY-76">
          <mxGeometry relative="1" as="geometry">
            <Array as="points">
              <mxPoint x="1420" y="1071" />
              <mxPoint x="1420" y="1040" />
              <mxPoint x="860" y="1040" />
              <mxPoint x="860" y="1071" />
            </Array>
          </mxGeometry>
        </mxCell>
        <mxCell id="4BsWTy4U4B5kvjyqjcPY-93" value="" style="endArrow=classic;html=1;rounded=1;sketch=0;fontColor=#1A1A1A;strokeColor=#09555B;curved=0;entryX=0;entryY=0.765;entryDx=0;entryDy=0;entryPerimeter=0;exitX=1.011;exitY=0.765;exitDx=0;exitDy=0;exitPerimeter=0;" edge="1" parent="1" source="4BsWTy4U4B5kvjyqjcPY-81" target="4BsWTy4U4B5kvjyqjcPY-86">
          <mxGeometry width="50" height="50" relative="1" as="geometry">
            <mxPoint x="1200" y="1091" as="sourcePoint" />
            <mxPoint x="1250" y="1040" as="targetPoint" />
          </mxGeometry>
        </mxCell>
        <mxCell id="4BsWTy4U4B5kvjyqjcPY-94" value="" style="endArrow=classic;html=1;rounded=1;sketch=0;fontColor=#FF0000;strokeColor=#09555B;curved=0;" edge="1" parent="1">
          <mxGeometry width="50" height="50" relative="1" as="geometry">
            <mxPoint x="999.9099999999999" y="1070" as="sourcePoint" />
            <mxPoint x="1079.9099999999999" y="1070" as="targetPoint" />
            <Array as="points">
              <mxPoint x="1042.91" y="1070" />
              <mxPoint x="1079.91" y="1070" />
            </Array>
          </mxGeometry>
        </mxCell>
        <mxCell id="4BsWTy4U4B5kvjyqjcPY-95" value="" style="endArrow=classic;html=1;rounded=1;sketch=0;fontColor=#FF0000;strokeColor=#09555B;curved=0;entryX=1.011;entryY=0.754;entryDx=0;entryDy=0;entryPerimeter=0;" edge="1" parent="1" target="4BsWTy4U4B5kvjyqjcPY-76">
          <mxGeometry width="50" height="50" relative="1" as="geometry">
            <mxPoint x="1080" y="1090" as="sourcePoint" />
            <mxPoint x="1130" y="1040" as="targetPoint" />
          </mxGeometry>
        </mxCell>
        <mxCell id="4BsWTy4U4B5kvjyqjcPY-96" value="" style="shape=flexArrow;endArrow=classic;html=1;rounded=1;sketch=0;fontColor=#1A1A1A;strokeColor=#09555B;curved=0;" edge="1" parent="1">
          <mxGeometry width="50" height="50" relative="1" as="geometry">
            <mxPoint x="1019.1100000000001" y="980" as="sourcePoint" />
            <mxPoint x="1019.1100000000001" y="1030" as="targetPoint" />
          </mxGeometry>
        </mxCell>
        <mxCell id="4BsWTy4U4B5kvjyqjcPY-97" value="最终结果" style="text;html=1;strokeColor=none;fillColor=none;align=left;verticalAlign=middle;whiteSpace=wrap;rounded=0;sketch=0;fontColor=#1A1A1A;" vertex="1" parent="1">
          <mxGeometry x="1040" y="980" width="80" height="40" as="geometry" />
        </mxCell>
        <mxCell id="4BsWTy4U4B5kvjyqjcPY-98" value="&lt;font style=&quot;font-size: 14px&quot;&gt;添加第三个元素&lt;/font&gt;" style="text;html=1;strokeColor=none;fillColor=none;align=left;verticalAlign=middle;whiteSpace=wrap;rounded=0;fontColor=#1A1A1A;" vertex="1" parent="1">
          <mxGeometry x="1040" y="1140" width="120" height="40" as="geometry" />
        </mxCell>
        <mxCell id="4BsWTy4U4B5kvjyqjcPY-99" value="" style="shape=flexArrow;endArrow=classic;html=1;rounded=1;sketch=0;fontColor=#1A1A1A;strokeColor=#09555B;curved=0;" edge="1" parent="1">
          <mxGeometry width="50" height="50" relative="1" as="geometry">
            <mxPoint x="1020.09" y="1140" as="sourcePoint" />
            <mxPoint x="1020.09" y="1190" as="targetPoint" />
          </mxGeometry>
        </mxCell>
        <mxCell id="4BsWTy4U4B5kvjyqjcPY-100" value="" style="shape=table;startSize=0;container=1;collapsible=0;childLayout=tableLayout;fillColor=#FAD9D5;strokeColor=#D0CEE2;fontColor=#1A1A1A;" vertex="1" parent="1">
          <mxGeometry x="1040" y="1220" width="120" height="40" as="geometry" />
        </mxCell>
        <mxCell id="4BsWTy4U4B5kvjyqjcPY-101" value="" style="shape=partialRectangle;collapsible=0;dropTarget=0;pointerEvents=0;fillColor=none;top=0;left=0;bottom=0;right=0;points=[[0,0.5],[1,0.5]];portConstraint=eastwest;strokeColor=#D0CEE2;fontColor=#1A1A1A;" vertex="1" parent="4BsWTy4U4B5kvjyqjcPY-100">
          <mxGeometry width="120" height="40" as="geometry" />
        </mxCell>
        <mxCell id="4BsWTy4U4B5kvjyqjcPY-102" value="*prev" style="shape=partialRectangle;html=1;whiteSpace=wrap;connectable=0;overflow=hidden;fillColor=none;top=0;left=0;bottom=0;right=0;strokeColor=#D0CEE2;fontColor=#1A1A1A;" vertex="1" parent="4BsWTy4U4B5kvjyqjcPY-101">
          <mxGeometry width="40" height="40" as="geometry">
            <mxRectangle width="40" height="40" as="alternateBounds" />
          </mxGeometry>
        </mxCell>
        <mxCell id="4BsWTy4U4B5kvjyqjcPY-103" value="&lt;font color=&quot;#000000&quot;&gt;L2&lt;/font&gt;" style="shape=partialRectangle;html=1;whiteSpace=wrap;connectable=0;overflow=hidden;fillColor=none;top=0;left=0;bottom=0;right=0;strokeColor=#D0CEE2;fontColor=#1A1A1A;" vertex="1" parent="4BsWTy4U4B5kvjyqjcPY-101">
          <mxGeometry x="40" width="40" height="40" as="geometry">
            <mxRectangle width="40" height="40" as="alternateBounds" />
          </mxGeometry>
        </mxCell>
        <mxCell id="4BsWTy4U4B5kvjyqjcPY-104" value="*next" style="shape=partialRectangle;html=1;whiteSpace=wrap;connectable=0;overflow=hidden;fillColor=none;top=0;left=0;bottom=0;right=0;strokeColor=#D0CEE2;fontColor=#1A1A1A;" vertex="1" parent="4BsWTy4U4B5kvjyqjcPY-101">
          <mxGeometry x="80" width="40" height="40" as="geometry">
            <mxRectangle width="40" height="40" as="alternateBounds" />
          </mxGeometry>
        </mxCell>
        <mxCell id="4BsWTy4U4B5kvjyqjcPY-105" value="" style="shape=table;startSize=0;container=1;collapsible=0;childLayout=tableLayout;fillColor=#FAD9D5;strokeColor=#D0CEE2;fontColor=#1A1A1A;" vertex="1" parent="1">
          <mxGeometry x="1239.91" y="1220" width="120.09" height="40" as="geometry" />
        </mxCell>
        <mxCell id="4BsWTy4U4B5kvjyqjcPY-106" value="" style="shape=partialRectangle;collapsible=0;dropTarget=0;pointerEvents=0;fillColor=none;top=0;left=0;bottom=0;right=0;points=[[0,0.5],[1,0.5]];portConstraint=eastwest;strokeColor=#D0CEE2;fontColor=#1A1A1A;" vertex="1" parent="4BsWTy4U4B5kvjyqjcPY-105">
          <mxGeometry width="120.09" height="40" as="geometry" />
        </mxCell>
        <mxCell id="4BsWTy4U4B5kvjyqjcPY-107" value="*prev" style="shape=partialRectangle;html=1;whiteSpace=wrap;connectable=0;overflow=hidden;fillColor=none;top=0;left=0;bottom=0;right=0;strokeColor=#D0CEE2;fontColor=#1A1A1A;" vertex="1" parent="4BsWTy4U4B5kvjyqjcPY-106">
          <mxGeometry width="40" height="40" as="geometry">
            <mxRectangle width="40" height="40" as="alternateBounds" />
          </mxGeometry>
        </mxCell>
        <mxCell id="4BsWTy4U4B5kvjyqjcPY-108" value="&lt;font color=&quot;#000000&quot;&gt;L1&lt;/font&gt;" style="shape=partialRectangle;html=1;whiteSpace=wrap;connectable=0;overflow=hidden;fillColor=none;top=0;left=0;bottom=0;right=0;strokeColor=#D0CEE2;fontColor=#1A1A1A;" vertex="1" parent="4BsWTy4U4B5kvjyqjcPY-106">
          <mxGeometry x="40" width="40" height="40" as="geometry">
            <mxRectangle width="40" height="40" as="alternateBounds" />
          </mxGeometry>
        </mxCell>
        <mxCell id="4BsWTy4U4B5kvjyqjcPY-109" value="*next" style="shape=partialRectangle;html=1;whiteSpace=wrap;connectable=0;overflow=hidden;fillColor=none;top=0;left=0;bottom=0;right=0;strokeColor=#D0CEE2;fontColor=#1A1A1A;" vertex="1" parent="4BsWTy4U4B5kvjyqjcPY-106">
          <mxGeometry x="80" width="40" height="40" as="geometry">
            <mxRectangle width="40" height="40" as="alternateBounds" />
          </mxGeometry>
        </mxCell>
        <mxCell id="4BsWTy4U4B5kvjyqjcPY-110" value="" style="shape=table;startSize=0;container=1;collapsible=0;childLayout=tableLayout;fillColor=#FAD9D5;strokeColor=#D0CEE2;fontColor=#1A1A1A;" vertex="1" parent="1">
          <mxGeometry x="1441" y="1220" width="119" height="40" as="geometry" />
        </mxCell>
        <mxCell id="4BsWTy4U4B5kvjyqjcPY-111" value="" style="shape=partialRectangle;collapsible=0;dropTarget=0;pointerEvents=0;fillColor=none;top=0;left=0;bottom=0;right=0;points=[[0,0.5],[1,0.5]];portConstraint=eastwest;strokeColor=#D0CEE2;fontColor=#1A1A1A;" vertex="1" parent="4BsWTy4U4B5kvjyqjcPY-110">
          <mxGeometry width="119" height="40" as="geometry" />
        </mxCell>
        <mxCell id="4BsWTy4U4B5kvjyqjcPY-112" value="*prev" style="shape=partialRectangle;html=1;whiteSpace=wrap;connectable=0;overflow=hidden;fillColor=none;top=0;left=0;bottom=0;right=0;strokeColor=#D0CEE2;fontColor=#1A1A1A;" vertex="1" parent="4BsWTy4U4B5kvjyqjcPY-111">
          <mxGeometry width="39" height="40" as="geometry">
            <mxRectangle width="39" height="40" as="alternateBounds" />
          </mxGeometry>
        </mxCell>
        <mxCell id="4BsWTy4U4B5kvjyqjcPY-113" value="&lt;font color=&quot;#000000&quot;&gt;head&lt;/font&gt;" style="shape=partialRectangle;html=1;whiteSpace=wrap;connectable=0;overflow=hidden;fillColor=none;top=0;left=0;bottom=0;right=0;strokeColor=#D0CEE2;fontColor=#1A1A1A;" vertex="1" parent="4BsWTy4U4B5kvjyqjcPY-111">
          <mxGeometry x="39" width="40" height="40" as="geometry">
            <mxRectangle width="40" height="40" as="alternateBounds" />
          </mxGeometry>
        </mxCell>
        <mxCell id="4BsWTy4U4B5kvjyqjcPY-114" value="*next" style="shape=partialRectangle;html=1;whiteSpace=wrap;connectable=0;overflow=hidden;fillColor=none;top=0;left=0;bottom=0;right=0;strokeColor=#D0CEE2;fontColor=#1A1A1A;" vertex="1" parent="4BsWTy4U4B5kvjyqjcPY-111">
          <mxGeometry x="79" width="40" height="40" as="geometry">
            <mxRectangle width="40" height="40" as="alternateBounds" />
          </mxGeometry>
        </mxCell>
        <mxCell id="4BsWTy4U4B5kvjyqjcPY-115" style="edgeStyle=orthogonalEdgeStyle;rounded=0;orthogonalLoop=1;jettySize=auto;html=1;entryX=1.005;entryY=0.263;entryDx=0;entryDy=0;entryPerimeter=0;strokeColor=#09555B;fontColor=#1A1A1A;" edge="1" parent="1" source="4BsWTy4U4B5kvjyqjcPY-111" target="4BsWTy4U4B5kvjyqjcPY-106">
          <mxGeometry relative="1" as="geometry">
            <Array as="points">
              <mxPoint x="1479.97" y="1231" />
            </Array>
            <mxPoint x="1519.97" y="1231" as="sourcePoint" />
          </mxGeometry>
        </mxCell>
        <mxCell id="4BsWTy4U4B5kvjyqjcPY-116" style="edgeStyle=orthogonalEdgeStyle;rounded=0;orthogonalLoop=1;jettySize=auto;html=1;entryX=1.005;entryY=0.72;entryDx=0;entryDy=0;entryPerimeter=0;strokeColor=#09555B;fontColor=#1A1A1A;exitX=0.001;exitY=0.711;exitDx=0;exitDy=0;exitPerimeter=0;" edge="1" parent="1" source="4BsWTy4U4B5kvjyqjcPY-101" target="4BsWTy4U4B5kvjyqjcPY-111">
          <mxGeometry relative="1" as="geometry">
            <mxPoint x="1739.97" y="1280" as="targetPoint" />
            <Array as="points">
              <mxPoint x="1020" y="1248" />
              <mxPoint x="1020" y="1280" />
              <mxPoint x="1580" y="1280" />
              <mxPoint x="1580" y="1249" />
            </Array>
            <mxPoint x="1239.97" y="1248" as="sourcePoint" />
          </mxGeometry>
        </mxCell>
        <mxCell id="4BsWTy4U4B5kvjyqjcPY-117" style="edgeStyle=orthogonalEdgeStyle;rounded=0;orthogonalLoop=1;jettySize=auto;html=1;exitX=1.005;exitY=0.28;exitDx=0;exitDy=0;exitPerimeter=0;strokeColor=#09555B;fontColor=#1A1A1A;" edge="1" parent="1" source="4BsWTy4U4B5kvjyqjcPY-111" target="4BsWTy4U4B5kvjyqjcPY-101">
          <mxGeometry relative="1" as="geometry">
            <Array as="points">
              <mxPoint x="1580" y="1231" />
              <mxPoint x="1580" y="1200" />
              <mxPoint x="1020" y="1200" />
              <mxPoint x="1020" y="1231" />
            </Array>
          </mxGeometry>
        </mxCell>
        <mxCell id="4BsWTy4U4B5kvjyqjcPY-118" value="" style="endArrow=classic;html=1;rounded=1;sketch=0;fontColor=#1A1A1A;strokeColor=#09555B;curved=0;entryX=0;entryY=0.765;entryDx=0;entryDy=0;entryPerimeter=0;exitX=1.011;exitY=0.765;exitDx=0;exitDy=0;exitPerimeter=0;" edge="1" parent="1" source="4BsWTy4U4B5kvjyqjcPY-106" target="4BsWTy4U4B5kvjyqjcPY-111">
          <mxGeometry width="50" height="50" relative="1" as="geometry">
            <mxPoint x="1360" y="1251" as="sourcePoint" />
            <mxPoint x="1410" y="1200" as="targetPoint" />
          </mxGeometry>
        </mxCell>
        <mxCell id="4BsWTy4U4B5kvjyqjcPY-119" value="" style="endArrow=classic;html=1;rounded=1;sketch=0;fontColor=#FF0000;strokeColor=#09555B;curved=0;" edge="1" parent="1">
          <mxGeometry width="50" height="50" relative="1" as="geometry">
            <mxPoint x="1159.9099999999999" y="1230" as="sourcePoint" />
            <mxPoint x="1239.9099999999999" y="1230" as="targetPoint" />
            <Array as="points">
              <mxPoint x="1202.91" y="1230" />
              <mxPoint x="1239.91" y="1230" />
            </Array>
          </mxGeometry>
        </mxCell>
        <mxCell id="4BsWTy4U4B5kvjyqjcPY-120" value="" style="endArrow=classic;html=1;rounded=1;sketch=0;fontColor=#FF0000;strokeColor=#09555B;curved=0;entryX=1.011;entryY=0.754;entryDx=0;entryDy=0;entryPerimeter=0;" edge="1" parent="1" target="4BsWTy4U4B5kvjyqjcPY-101">
          <mxGeometry width="50" height="50" relative="1" as="geometry">
            <mxPoint x="1240" y="1250" as="sourcePoint" />
            <mxPoint x="1290" y="1200" as="targetPoint" />
          </mxGeometry>
        </mxCell>
        <mxCell id="4BsWTy4U4B5kvjyqjcPY-121" value="" style="shape=table;startSize=0;container=1;collapsible=0;childLayout=tableLayout;fillColor=#FAD9D5;strokeColor=#D0CEE2;fontColor=#1A1A1A;" vertex="1" parent="1">
          <mxGeometry x="840" y="1220" width="120" height="40" as="geometry" />
        </mxCell>
        <mxCell id="4BsWTy4U4B5kvjyqjcPY-122" value="" style="shape=partialRectangle;collapsible=0;dropTarget=0;pointerEvents=0;fillColor=none;top=0;left=0;bottom=0;right=0;points=[[0,0.5],[1,0.5]];portConstraint=eastwest;strokeColor=#D0CEE2;fontColor=#1A1A1A;" vertex="1" parent="4BsWTy4U4B5kvjyqjcPY-121">
          <mxGeometry width="120" height="40" as="geometry" />
        </mxCell>
        <mxCell id="4BsWTy4U4B5kvjyqjcPY-123" value="*prev" style="shape=partialRectangle;html=1;whiteSpace=wrap;connectable=0;overflow=hidden;fillColor=none;top=0;left=0;bottom=0;right=0;strokeColor=#D0CEE2;fontColor=#1A1A1A;" vertex="1" parent="4BsWTy4U4B5kvjyqjcPY-122">
          <mxGeometry width="40" height="40" as="geometry">
            <mxRectangle width="40" height="40" as="alternateBounds" />
          </mxGeometry>
        </mxCell>
        <mxCell id="4BsWTy4U4B5kvjyqjcPY-124" value="&lt;font color=&quot;#ff0000&quot;&gt;new&lt;/font&gt;" style="shape=partialRectangle;html=1;whiteSpace=wrap;connectable=0;overflow=hidden;fillColor=none;top=0;left=0;bottom=0;right=0;strokeColor=#D0CEE2;fontColor=#1A1A1A;" vertex="1" parent="4BsWTy4U4B5kvjyqjcPY-122">
          <mxGeometry x="40" width="40" height="40" as="geometry">
            <mxRectangle width="40" height="40" as="alternateBounds" />
          </mxGeometry>
        </mxCell>
        <mxCell id="4BsWTy4U4B5kvjyqjcPY-125" value="*next" style="shape=partialRectangle;html=1;whiteSpace=wrap;connectable=0;overflow=hidden;fillColor=none;top=0;left=0;bottom=0;right=0;strokeColor=#D0CEE2;fontColor=#1A1A1A;" vertex="1" parent="4BsWTy4U4B5kvjyqjcPY-122">
          <mxGeometry x="80" width="40" height="40" as="geometry">
            <mxRectangle width="40" height="40" as="alternateBounds" />
          </mxGeometry>
        </mxCell>
        <mxCell id="4BsWTy4U4B5kvjyqjcPY-126" value="" style="shape=flexArrow;endArrow=classic;html=1;rounded=1;sketch=0;fontColor=#1A1A1A;strokeColor=#09555B;curved=0;" edge="1" parent="1">
          <mxGeometry width="50" height="50" relative="1" as="geometry">
            <mxPoint x="1019.1100000000001" y="1300" as="sourcePoint" />
            <mxPoint x="1019.1100000000001" y="1350" as="targetPoint" />
          </mxGeometry>
        </mxCell>
        <mxCell id="4BsWTy4U4B5kvjyqjcPY-127" value="链接过程" style="text;html=1;strokeColor=none;fillColor=none;align=left;verticalAlign=middle;whiteSpace=wrap;rounded=0;sketch=0;fontColor=#1A1A1A;" vertex="1" parent="1">
          <mxGeometry x="1040" y="1300" width="80" height="40" as="geometry" />
        </mxCell>
        <mxCell id="4BsWTy4U4B5kvjyqjcPY-128" value="" style="shape=table;startSize=0;container=1;collapsible=0;childLayout=tableLayout;fillColor=#FAD9D5;strokeColor=#D0CEE2;fontColor=#1A1A1A;" vertex="1" parent="1">
          <mxGeometry x="1080" y="1380" width="120" height="40" as="geometry" />
        </mxCell>
        <mxCell id="4BsWTy4U4B5kvjyqjcPY-129" value="" style="shape=partialRectangle;collapsible=0;dropTarget=0;pointerEvents=0;fillColor=none;top=0;left=0;bottom=0;right=0;points=[[0,0.5],[1,0.5]];portConstraint=eastwest;strokeColor=#D0CEE2;fontColor=#1A1A1A;" vertex="1" parent="4BsWTy4U4B5kvjyqjcPY-128">
          <mxGeometry width="120" height="40" as="geometry" />
        </mxCell>
        <mxCell id="4BsWTy4U4B5kvjyqjcPY-130" value="*prev" style="shape=partialRectangle;html=1;whiteSpace=wrap;connectable=0;overflow=hidden;fillColor=none;top=0;left=0;bottom=0;right=0;strokeColor=#D0CEE2;fontColor=#1A1A1A;" vertex="1" parent="4BsWTy4U4B5kvjyqjcPY-129">
          <mxGeometry width="40" height="40" as="geometry">
            <mxRectangle width="40" height="40" as="alternateBounds" />
          </mxGeometry>
        </mxCell>
        <mxCell id="4BsWTy4U4B5kvjyqjcPY-131" value="&lt;font color=&quot;#ff0000&quot;&gt;next&lt;/font&gt;" style="shape=partialRectangle;html=1;whiteSpace=wrap;connectable=0;overflow=hidden;fillColor=none;top=0;left=0;bottom=0;right=0;strokeColor=#D0CEE2;fontColor=#1A1A1A;" vertex="1" parent="4BsWTy4U4B5kvjyqjcPY-129">
          <mxGeometry x="40" width="40" height="40" as="geometry">
            <mxRectangle width="40" height="40" as="alternateBounds" />
          </mxGeometry>
        </mxCell>
        <mxCell id="4BsWTy4U4B5kvjyqjcPY-132" value="*next" style="shape=partialRectangle;html=1;whiteSpace=wrap;connectable=0;overflow=hidden;fillColor=none;top=0;left=0;bottom=0;right=0;strokeColor=#D0CEE2;fontColor=#1A1A1A;" vertex="1" parent="4BsWTy4U4B5kvjyqjcPY-129">
          <mxGeometry x="80" width="40" height="40" as="geometry">
            <mxRectangle width="40" height="40" as="alternateBounds" />
          </mxGeometry>
        </mxCell>
        <mxCell id="4BsWTy4U4B5kvjyqjcPY-133" value="" style="shape=table;startSize=0;container=1;collapsible=0;childLayout=tableLayout;fillColor=#FAD9D5;strokeColor=#D0CEE2;fontColor=#1A1A1A;" vertex="1" parent="1">
          <mxGeometry x="1279.91" y="1380" width="120.09" height="40" as="geometry" />
        </mxCell>
        <mxCell id="4BsWTy4U4B5kvjyqjcPY-134" value="" style="shape=partialRectangle;collapsible=0;dropTarget=0;pointerEvents=0;fillColor=none;top=0;left=0;bottom=0;right=0;points=[[0,0.5],[1,0.5]];portConstraint=eastwest;strokeColor=#D0CEE2;fontColor=#1A1A1A;" vertex="1" parent="4BsWTy4U4B5kvjyqjcPY-133">
          <mxGeometry width="120.09" height="40" as="geometry" />
        </mxCell>
        <mxCell id="4BsWTy4U4B5kvjyqjcPY-135" value="*prev" style="shape=partialRectangle;html=1;whiteSpace=wrap;connectable=0;overflow=hidden;fillColor=none;top=0;left=0;bottom=0;right=0;strokeColor=#D0CEE2;fontColor=#1A1A1A;" vertex="1" parent="4BsWTy4U4B5kvjyqjcPY-134">
          <mxGeometry width="40" height="40" as="geometry">
            <mxRectangle width="40" height="40" as="alternateBounds" />
          </mxGeometry>
        </mxCell>
        <mxCell id="4BsWTy4U4B5kvjyqjcPY-136" value="&lt;font color=&quot;#000000&quot;&gt;L1&lt;/font&gt;" style="shape=partialRectangle;html=1;whiteSpace=wrap;connectable=0;overflow=hidden;fillColor=none;top=0;left=0;bottom=0;right=0;strokeColor=#D0CEE2;fontColor=#1A1A1A;" vertex="1" parent="4BsWTy4U4B5kvjyqjcPY-134">
          <mxGeometry x="40" width="40" height="40" as="geometry">
            <mxRectangle width="40" height="40" as="alternateBounds" />
          </mxGeometry>
        </mxCell>
        <mxCell id="4BsWTy4U4B5kvjyqjcPY-137" value="*next" style="shape=partialRectangle;html=1;whiteSpace=wrap;connectable=0;overflow=hidden;fillColor=none;top=0;left=0;bottom=0;right=0;strokeColor=#D0CEE2;fontColor=#1A1A1A;" vertex="1" parent="4BsWTy4U4B5kvjyqjcPY-134">
          <mxGeometry x="80" width="40" height="40" as="geometry">
            <mxRectangle width="40" height="40" as="alternateBounds" />
          </mxGeometry>
        </mxCell>
        <mxCell id="4BsWTy4U4B5kvjyqjcPY-138" value="" style="shape=table;startSize=0;container=1;collapsible=0;childLayout=tableLayout;fillColor=#FAD9D5;strokeColor=#D0CEE2;fontColor=#1A1A1A;" vertex="1" parent="1">
          <mxGeometry x="1481" y="1380" width="119" height="40" as="geometry" />
        </mxCell>
        <mxCell id="4BsWTy4U4B5kvjyqjcPY-139" value="" style="shape=partialRectangle;collapsible=0;dropTarget=0;pointerEvents=0;fillColor=none;top=0;left=0;bottom=0;right=0;points=[[0,0.5],[1,0.5]];portConstraint=eastwest;strokeColor=#D0CEE2;fontColor=#1A1A1A;" vertex="1" parent="4BsWTy4U4B5kvjyqjcPY-138">
          <mxGeometry width="119" height="40" as="geometry" />
        </mxCell>
        <mxCell id="4BsWTy4U4B5kvjyqjcPY-140" value="*prev" style="shape=partialRectangle;html=1;whiteSpace=wrap;connectable=0;overflow=hidden;fillColor=none;top=0;left=0;bottom=0;right=0;strokeColor=#D0CEE2;fontColor=#1A1A1A;" vertex="1" parent="4BsWTy4U4B5kvjyqjcPY-139">
          <mxGeometry width="39" height="40" as="geometry">
            <mxRectangle width="39" height="40" as="alternateBounds" />
          </mxGeometry>
        </mxCell>
        <mxCell id="4BsWTy4U4B5kvjyqjcPY-141" value="&lt;font color=&quot;#ff0000&quot;&gt;prev&lt;/font&gt;" style="shape=partialRectangle;html=1;whiteSpace=wrap;connectable=0;overflow=hidden;fillColor=none;top=0;left=0;bottom=0;right=0;strokeColor=#D0CEE2;fontColor=#1A1A1A;" vertex="1" parent="4BsWTy4U4B5kvjyqjcPY-139">
          <mxGeometry x="39" width="40" height="40" as="geometry">
            <mxRectangle width="40" height="40" as="alternateBounds" />
          </mxGeometry>
        </mxCell>
        <mxCell id="4BsWTy4U4B5kvjyqjcPY-142" value="*next" style="shape=partialRectangle;html=1;whiteSpace=wrap;connectable=0;overflow=hidden;fillColor=none;top=0;left=0;bottom=0;right=0;strokeColor=#D0CEE2;fontColor=#1A1A1A;" vertex="1" parent="4BsWTy4U4B5kvjyqjcPY-139">
          <mxGeometry x="79" width="40" height="40" as="geometry">
            <mxRectangle width="40" height="40" as="alternateBounds" />
          </mxGeometry>
        </mxCell>
        <mxCell id="4BsWTy4U4B5kvjyqjcPY-143" style="edgeStyle=orthogonalEdgeStyle;rounded=0;orthogonalLoop=1;jettySize=auto;html=1;entryX=1.005;entryY=0.263;entryDx=0;entryDy=0;entryPerimeter=0;strokeColor=#09555B;fontColor=#1A1A1A;" edge="1" parent="1" source="4BsWTy4U4B5kvjyqjcPY-139" target="4BsWTy4U4B5kvjyqjcPY-134">
          <mxGeometry relative="1" as="geometry">
            <Array as="points">
              <mxPoint x="1519.97" y="1391" />
            </Array>
            <mxPoint x="1559.97" y="1391" as="sourcePoint" />
          </mxGeometry>
        </mxCell>
        <mxCell id="4BsWTy4U4B5kvjyqjcPY-144" style="edgeStyle=orthogonalEdgeStyle;rounded=0;orthogonalLoop=1;jettySize=auto;html=1;entryX=1.005;entryY=0.72;entryDx=0;entryDy=0;entryPerimeter=0;strokeColor=#09555B;fontColor=#1A1A1A;exitX=-0.008;exitY=0.723;exitDx=0;exitDy=0;exitPerimeter=0;" edge="1" parent="1" source="4BsWTy4U4B5kvjyqjcPY-150" target="4BsWTy4U4B5kvjyqjcPY-139">
          <mxGeometry relative="1" as="geometry">
            <mxPoint x="1779.97" y="1440" as="targetPoint" />
            <Array as="points">
              <mxPoint x="860" y="1409" />
              <mxPoint x="860" y="1440" />
              <mxPoint x="1620" y="1440" />
              <mxPoint x="1620" y="1409" />
            </Array>
            <mxPoint x="1279.97" y="1408" as="sourcePoint" />
          </mxGeometry>
        </mxCell>
        <mxCell id="4BsWTy4U4B5kvjyqjcPY-145" style="edgeStyle=orthogonalEdgeStyle;rounded=0;orthogonalLoop=1;jettySize=auto;html=1;exitX=1.005;exitY=0.28;exitDx=0;exitDy=0;exitPerimeter=0;strokeColor=#09555B;fontColor=#1A1A1A;" edge="1" parent="1" source="4BsWTy4U4B5kvjyqjcPY-139">
          <mxGeometry relative="1" as="geometry">
            <Array as="points">
              <mxPoint x="1620" y="1391" />
              <mxPoint x="1620" y="1360" />
              <mxPoint x="860" y="1360" />
              <mxPoint x="860" y="1391" />
            </Array>
            <mxPoint x="880" y="1391" as="targetPoint" />
          </mxGeometry>
        </mxCell>
        <mxCell id="4BsWTy4U4B5kvjyqjcPY-146" value="" style="endArrow=classic;html=1;rounded=1;sketch=0;fontColor=#1A1A1A;strokeColor=#09555B;curved=0;entryX=0;entryY=0.765;entryDx=0;entryDy=0;entryPerimeter=0;exitX=1.011;exitY=0.765;exitDx=0;exitDy=0;exitPerimeter=0;" edge="1" parent="1" source="4BsWTy4U4B5kvjyqjcPY-134" target="4BsWTy4U4B5kvjyqjcPY-139">
          <mxGeometry width="50" height="50" relative="1" as="geometry">
            <mxPoint x="1400" y="1411" as="sourcePoint" />
            <mxPoint x="1450" y="1360" as="targetPoint" />
          </mxGeometry>
        </mxCell>
        <mxCell id="4BsWTy4U4B5kvjyqjcPY-147" value="" style="endArrow=classic;html=1;rounded=1;sketch=0;fontColor=#FF0000;strokeColor=#09555B;curved=0;" edge="1" parent="1">
          <mxGeometry width="50" height="50" relative="1" as="geometry">
            <mxPoint x="1199.9099999999999" y="1390" as="sourcePoint" />
            <mxPoint x="1279.9099999999999" y="1390" as="targetPoint" />
            <Array as="points">
              <mxPoint x="1242.91" y="1390" />
              <mxPoint x="1279.91" y="1390" />
            </Array>
          </mxGeometry>
        </mxCell>
        <mxCell id="4BsWTy4U4B5kvjyqjcPY-148" value="" style="endArrow=classic;html=1;rounded=1;sketch=0;fontColor=#FF0000;strokeColor=#09555B;curved=0;entryX=1.011;entryY=0.754;entryDx=0;entryDy=0;entryPerimeter=0;" edge="1" parent="1" target="4BsWTy4U4B5kvjyqjcPY-129">
          <mxGeometry width="50" height="50" relative="1" as="geometry">
            <mxPoint x="1280" y="1410" as="sourcePoint" />
            <mxPoint x="1330" y="1360" as="targetPoint" />
          </mxGeometry>
        </mxCell>
        <mxCell id="4BsWTy4U4B5kvjyqjcPY-149" value="" style="shape=table;startSize=0;container=1;collapsible=0;childLayout=tableLayout;fillColor=#FAD9D5;strokeColor=#D0CEE2;fontColor=#1A1A1A;" vertex="1" parent="1">
          <mxGeometry x="880" y="1380" width="120" height="40" as="geometry" />
        </mxCell>
        <mxCell id="4BsWTy4U4B5kvjyqjcPY-150" value="" style="shape=partialRectangle;collapsible=0;dropTarget=0;pointerEvents=0;fillColor=none;top=0;left=0;bottom=0;right=0;points=[[0,0.5],[1,0.5]];portConstraint=eastwest;strokeColor=#D0CEE2;fontColor=#1A1A1A;" vertex="1" parent="4BsWTy4U4B5kvjyqjcPY-149">
          <mxGeometry width="120" height="40" as="geometry" />
        </mxCell>
        <mxCell id="4BsWTy4U4B5kvjyqjcPY-151" value="*prev" style="shape=partialRectangle;html=1;whiteSpace=wrap;connectable=0;overflow=hidden;fillColor=none;top=0;left=0;bottom=0;right=0;strokeColor=#D0CEE2;fontColor=#1A1A1A;" vertex="1" parent="4BsWTy4U4B5kvjyqjcPY-150">
          <mxGeometry width="40" height="40" as="geometry">
            <mxRectangle width="40" height="40" as="alternateBounds" />
          </mxGeometry>
        </mxCell>
        <mxCell id="4BsWTy4U4B5kvjyqjcPY-152" value="&lt;font color=&quot;#ff0000&quot;&gt;new&lt;/font&gt;" style="shape=partialRectangle;html=1;whiteSpace=wrap;connectable=0;overflow=hidden;fillColor=none;top=0;left=0;bottom=0;right=0;strokeColor=#D0CEE2;fontColor=#1A1A1A;" vertex="1" parent="4BsWTy4U4B5kvjyqjcPY-150">
          <mxGeometry x="40" width="40" height="40" as="geometry">
            <mxRectangle width="40" height="40" as="alternateBounds" />
          </mxGeometry>
        </mxCell>
        <mxCell id="4BsWTy4U4B5kvjyqjcPY-153" value="*next" style="shape=partialRectangle;html=1;whiteSpace=wrap;connectable=0;overflow=hidden;fillColor=none;top=0;left=0;bottom=0;right=0;strokeColor=#D0CEE2;fontColor=#1A1A1A;" vertex="1" parent="4BsWTy4U4B5kvjyqjcPY-150">
          <mxGeometry x="80" width="40" height="40" as="geometry">
            <mxRectangle width="40" height="40" as="alternateBounds" />
          </mxGeometry>
        </mxCell>
        <mxCell id="4BsWTy4U4B5kvjyqjcPY-154" value="" style="endArrow=classic;html=1;rounded=1;sketch=0;fontColor=#FF0000;strokeColor=#09555B;curved=0;" edge="1" parent="1">
          <mxGeometry width="50" height="50" relative="1" as="geometry">
            <mxPoint x="999.9099999999999" y="1390" as="sourcePoint" />
            <mxPoint x="1079.9099999999999" y="1390" as="targetPoint" />
            <Array as="points">
              <mxPoint x="1042.91" y="1390" />
              <mxPoint x="1079.91" y="1390" />
            </Array>
          </mxGeometry>
        </mxCell>
        <mxCell id="4BsWTy4U4B5kvjyqjcPY-155" value="" style="endArrow=classic;html=1;rounded=1;sketch=0;fontColor=#FF0000;strokeColor=#09555B;curved=0;entryX=1.011;entryY=0.754;entryDx=0;entryDy=0;entryPerimeter=0;" edge="1" parent="1">
          <mxGeometry width="50" height="50" relative="1" as="geometry">
            <mxPoint x="1078.68" y="1410" as="sourcePoint" />
            <mxPoint x="1000.0000000000002" y="1410.1599999999999" as="targetPoint" />
          </mxGeometry>
        </mxCell>
        <mxCell id="4BsWTy4U4B5kvjyqjcPY-156" value="" style="shape=flexArrow;endArrow=classic;html=1;rounded=1;sketch=0;fontColor=#1A1A1A;strokeColor=#09555B;curved=0;" edge="1" parent="1">
          <mxGeometry width="50" height="50" relative="1" as="geometry">
            <mxPoint x="1019.1100000000001" y="1465" as="sourcePoint" />
            <mxPoint x="1019.1100000000001" y="1515" as="targetPoint" />
          </mxGeometry>
        </mxCell>
        <mxCell id="4BsWTy4U4B5kvjyqjcPY-157" value="最终结果" style="text;html=1;strokeColor=none;fillColor=none;align=left;verticalAlign=middle;whiteSpace=wrap;rounded=0;sketch=0;fontColor=#1A1A1A;" vertex="1" parent="1">
          <mxGeometry x="1040" y="1465" width="80" height="40" as="geometry" />
        </mxCell>
        <mxCell id="4BsWTy4U4B5kvjyqjcPY-158" value="" style="shape=table;startSize=0;container=1;collapsible=0;childLayout=tableLayout;fillColor=#FAD9D5;strokeColor=#D0CEE2;fontColor=#1A1A1A;" vertex="1" parent="1">
          <mxGeometry x="1081" y="1540" width="120" height="40" as="geometry" />
        </mxCell>
        <mxCell id="4BsWTy4U4B5kvjyqjcPY-159" value="" style="shape=partialRectangle;collapsible=0;dropTarget=0;pointerEvents=0;fillColor=none;top=0;left=0;bottom=0;right=0;points=[[0,0.5],[1,0.5]];portConstraint=eastwest;strokeColor=#D0CEE2;fontColor=#1A1A1A;" vertex="1" parent="4BsWTy4U4B5kvjyqjcPY-158">
          <mxGeometry width="120" height="40" as="geometry" />
        </mxCell>
        <mxCell id="4BsWTy4U4B5kvjyqjcPY-160" value="*prev" style="shape=partialRectangle;html=1;whiteSpace=wrap;connectable=0;overflow=hidden;fillColor=none;top=0;left=0;bottom=0;right=0;strokeColor=#D0CEE2;fontColor=#1A1A1A;" vertex="1" parent="4BsWTy4U4B5kvjyqjcPY-159">
          <mxGeometry width="40" height="40" as="geometry">
            <mxRectangle width="40" height="40" as="alternateBounds" />
          </mxGeometry>
        </mxCell>
        <mxCell id="4BsWTy4U4B5kvjyqjcPY-161" value="&lt;font color=&quot;#000000&quot;&gt;L2&lt;/font&gt;" style="shape=partialRectangle;html=1;whiteSpace=wrap;connectable=0;overflow=hidden;fillColor=none;top=0;left=0;bottom=0;right=0;strokeColor=#D0CEE2;fontColor=#1A1A1A;" vertex="1" parent="4BsWTy4U4B5kvjyqjcPY-159">
          <mxGeometry x="40" width="40" height="40" as="geometry">
            <mxRectangle width="40" height="40" as="alternateBounds" />
          </mxGeometry>
        </mxCell>
        <mxCell id="4BsWTy4U4B5kvjyqjcPY-162" value="*next" style="shape=partialRectangle;html=1;whiteSpace=wrap;connectable=0;overflow=hidden;fillColor=none;top=0;left=0;bottom=0;right=0;strokeColor=#D0CEE2;fontColor=#1A1A1A;" vertex="1" parent="4BsWTy4U4B5kvjyqjcPY-159">
          <mxGeometry x="80" width="40" height="40" as="geometry">
            <mxRectangle width="40" height="40" as="alternateBounds" />
          </mxGeometry>
        </mxCell>
        <mxCell id="4BsWTy4U4B5kvjyqjcPY-163" value="" style="shape=table;startSize=0;container=1;collapsible=0;childLayout=tableLayout;fillColor=#FAD9D5;strokeColor=#D0CEE2;fontColor=#1A1A1A;" vertex="1" parent="1">
          <mxGeometry x="1280.91" y="1540" width="120.09" height="40" as="geometry" />
        </mxCell>
        <mxCell id="4BsWTy4U4B5kvjyqjcPY-164" value="" style="shape=partialRectangle;collapsible=0;dropTarget=0;pointerEvents=0;fillColor=none;top=0;left=0;bottom=0;right=0;points=[[0,0.5],[1,0.5]];portConstraint=eastwest;strokeColor=#D0CEE2;fontColor=#1A1A1A;" vertex="1" parent="4BsWTy4U4B5kvjyqjcPY-163">
          <mxGeometry width="120.09" height="40" as="geometry" />
        </mxCell>
        <mxCell id="4BsWTy4U4B5kvjyqjcPY-165" value="*prev" style="shape=partialRectangle;html=1;whiteSpace=wrap;connectable=0;overflow=hidden;fillColor=none;top=0;left=0;bottom=0;right=0;strokeColor=#D0CEE2;fontColor=#1A1A1A;" vertex="1" parent="4BsWTy4U4B5kvjyqjcPY-164">
          <mxGeometry width="40" height="40" as="geometry">
            <mxRectangle width="40" height="40" as="alternateBounds" />
          </mxGeometry>
        </mxCell>
        <mxCell id="4BsWTy4U4B5kvjyqjcPY-166" value="&lt;font color=&quot;#000000&quot;&gt;L1&lt;/font&gt;" style="shape=partialRectangle;html=1;whiteSpace=wrap;connectable=0;overflow=hidden;fillColor=none;top=0;left=0;bottom=0;right=0;strokeColor=#D0CEE2;fontColor=#1A1A1A;" vertex="1" parent="4BsWTy4U4B5kvjyqjcPY-164">
          <mxGeometry x="40" width="40" height="40" as="geometry">
            <mxRectangle width="40" height="40" as="alternateBounds" />
          </mxGeometry>
        </mxCell>
        <mxCell id="4BsWTy4U4B5kvjyqjcPY-167" value="*next" style="shape=partialRectangle;html=1;whiteSpace=wrap;connectable=0;overflow=hidden;fillColor=none;top=0;left=0;bottom=0;right=0;strokeColor=#D0CEE2;fontColor=#1A1A1A;" vertex="1" parent="4BsWTy4U4B5kvjyqjcPY-164">
          <mxGeometry x="80" width="40" height="40" as="geometry">
            <mxRectangle width="40" height="40" as="alternateBounds" />
          </mxGeometry>
        </mxCell>
        <mxCell id="4BsWTy4U4B5kvjyqjcPY-168" value="" style="shape=table;startSize=0;container=1;collapsible=0;childLayout=tableLayout;fillColor=#FAD9D5;strokeColor=#D0CEE2;fontColor=#1A1A1A;" vertex="1" parent="1">
          <mxGeometry x="1482" y="1540" width="119" height="40" as="geometry" />
        </mxCell>
        <mxCell id="4BsWTy4U4B5kvjyqjcPY-169" value="" style="shape=partialRectangle;collapsible=0;dropTarget=0;pointerEvents=0;fillColor=none;top=0;left=0;bottom=0;right=0;points=[[0,0.5],[1,0.5]];portConstraint=eastwest;strokeColor=#D0CEE2;fontColor=#1A1A1A;" vertex="1" parent="4BsWTy4U4B5kvjyqjcPY-168">
          <mxGeometry width="119" height="40" as="geometry" />
        </mxCell>
        <mxCell id="4BsWTy4U4B5kvjyqjcPY-170" value="*prev" style="shape=partialRectangle;html=1;whiteSpace=wrap;connectable=0;overflow=hidden;fillColor=none;top=0;left=0;bottom=0;right=0;strokeColor=#D0CEE2;fontColor=#1A1A1A;" vertex="1" parent="4BsWTy4U4B5kvjyqjcPY-169">
          <mxGeometry width="39" height="40" as="geometry">
            <mxRectangle width="39" height="40" as="alternateBounds" />
          </mxGeometry>
        </mxCell>
        <mxCell id="4BsWTy4U4B5kvjyqjcPY-171" value="&lt;font color=&quot;#000000&quot;&gt;prev&lt;/font&gt;" style="shape=partialRectangle;html=1;whiteSpace=wrap;connectable=0;overflow=hidden;fillColor=none;top=0;left=0;bottom=0;right=0;strokeColor=#D0CEE2;fontColor=#1A1A1A;" vertex="1" parent="4BsWTy4U4B5kvjyqjcPY-169">
          <mxGeometry x="39" width="40" height="40" as="geometry">
            <mxRectangle width="40" height="40" as="alternateBounds" />
          </mxGeometry>
        </mxCell>
        <mxCell id="4BsWTy4U4B5kvjyqjcPY-172" value="*next" style="shape=partialRectangle;html=1;whiteSpace=wrap;connectable=0;overflow=hidden;fillColor=none;top=0;left=0;bottom=0;right=0;strokeColor=#D0CEE2;fontColor=#1A1A1A;" vertex="1" parent="4BsWTy4U4B5kvjyqjcPY-169">
          <mxGeometry x="79" width="40" height="40" as="geometry">
            <mxRectangle width="40" height="40" as="alternateBounds" />
          </mxGeometry>
        </mxCell>
        <mxCell id="4BsWTy4U4B5kvjyqjcPY-173" style="edgeStyle=orthogonalEdgeStyle;rounded=0;orthogonalLoop=1;jettySize=auto;html=1;entryX=1.005;entryY=0.263;entryDx=0;entryDy=0;entryPerimeter=0;strokeColor=#09555B;fontColor=#1A1A1A;" edge="1" parent="1" source="4BsWTy4U4B5kvjyqjcPY-169" target="4BsWTy4U4B5kvjyqjcPY-164">
          <mxGeometry relative="1" as="geometry">
            <Array as="points">
              <mxPoint x="1520.97" y="1551" />
            </Array>
            <mxPoint x="1560.97" y="1551" as="sourcePoint" />
          </mxGeometry>
        </mxCell>
        <mxCell id="4BsWTy4U4B5kvjyqjcPY-174" style="edgeStyle=orthogonalEdgeStyle;rounded=0;orthogonalLoop=1;jettySize=auto;html=1;entryX=1.005;entryY=0.72;entryDx=0;entryDy=0;entryPerimeter=0;strokeColor=#09555B;fontColor=#1A1A1A;exitX=-0.008;exitY=0.723;exitDx=0;exitDy=0;exitPerimeter=0;" edge="1" parent="1" source="4BsWTy4U4B5kvjyqjcPY-180" target="4BsWTy4U4B5kvjyqjcPY-169">
          <mxGeometry relative="1" as="geometry">
            <mxPoint x="1780.97" y="1600" as="targetPoint" />
            <Array as="points">
              <mxPoint x="861" y="1569" />
              <mxPoint x="861" y="1600" />
              <mxPoint x="1621" y="1600" />
              <mxPoint x="1621" y="1569" />
            </Array>
            <mxPoint x="1280.97" y="1568" as="sourcePoint" />
          </mxGeometry>
        </mxCell>
        <mxCell id="4BsWTy4U4B5kvjyqjcPY-175" style="edgeStyle=orthogonalEdgeStyle;rounded=0;orthogonalLoop=1;jettySize=auto;html=1;exitX=1.005;exitY=0.28;exitDx=0;exitDy=0;exitPerimeter=0;strokeColor=#09555B;fontColor=#1A1A1A;" edge="1" parent="1" source="4BsWTy4U4B5kvjyqjcPY-169">
          <mxGeometry relative="1" as="geometry">
            <Array as="points">
              <mxPoint x="1621" y="1551" />
              <mxPoint x="1621" y="1520" />
              <mxPoint x="861" y="1520" />
              <mxPoint x="861" y="1551" />
            </Array>
            <mxPoint x="881" y="1551" as="targetPoint" />
          </mxGeometry>
        </mxCell>
        <mxCell id="4BsWTy4U4B5kvjyqjcPY-176" value="" style="endArrow=classic;html=1;rounded=1;sketch=0;fontColor=#1A1A1A;strokeColor=#09555B;curved=0;entryX=0;entryY=0.765;entryDx=0;entryDy=0;entryPerimeter=0;exitX=1.011;exitY=0.765;exitDx=0;exitDy=0;exitPerimeter=0;" edge="1" parent="1" source="4BsWTy4U4B5kvjyqjcPY-164" target="4BsWTy4U4B5kvjyqjcPY-169">
          <mxGeometry width="50" height="50" relative="1" as="geometry">
            <mxPoint x="1401" y="1571" as="sourcePoint" />
            <mxPoint x="1451" y="1520" as="targetPoint" />
          </mxGeometry>
        </mxCell>
        <mxCell id="4BsWTy4U4B5kvjyqjcPY-177" value="" style="endArrow=classic;html=1;rounded=1;sketch=0;fontColor=#FF0000;strokeColor=#09555B;curved=0;" edge="1" parent="1">
          <mxGeometry width="50" height="50" relative="1" as="geometry">
            <mxPoint x="1200.9099999999999" y="1550" as="sourcePoint" />
            <mxPoint x="1280.9099999999999" y="1550" as="targetPoint" />
            <Array as="points">
              <mxPoint x="1243.91" y="1550" />
              <mxPoint x="1280.91" y="1550" />
            </Array>
          </mxGeometry>
        </mxCell>
        <mxCell id="4BsWTy4U4B5kvjyqjcPY-178" value="" style="endArrow=classic;html=1;rounded=1;sketch=0;fontColor=#FF0000;strokeColor=#09555B;curved=0;entryX=1.011;entryY=0.754;entryDx=0;entryDy=0;entryPerimeter=0;" edge="1" parent="1" target="4BsWTy4U4B5kvjyqjcPY-159">
          <mxGeometry width="50" height="50" relative="1" as="geometry">
            <mxPoint x="1281" y="1570" as="sourcePoint" />
            <mxPoint x="1331" y="1520" as="targetPoint" />
          </mxGeometry>
        </mxCell>
        <mxCell id="4BsWTy4U4B5kvjyqjcPY-179" value="" style="shape=table;startSize=0;container=1;collapsible=0;childLayout=tableLayout;fillColor=#FAD9D5;strokeColor=#D0CEE2;fontColor=#1A1A1A;" vertex="1" parent="1">
          <mxGeometry x="881" y="1540" width="120" height="40" as="geometry" />
        </mxCell>
        <mxCell id="4BsWTy4U4B5kvjyqjcPY-180" value="" style="shape=partialRectangle;collapsible=0;dropTarget=0;pointerEvents=0;fillColor=none;top=0;left=0;bottom=0;right=0;points=[[0,0.5],[1,0.5]];portConstraint=eastwest;strokeColor=#D0CEE2;fontColor=#1A1A1A;" vertex="1" parent="4BsWTy4U4B5kvjyqjcPY-179">
          <mxGeometry width="120" height="40" as="geometry" />
        </mxCell>
        <mxCell id="4BsWTy4U4B5kvjyqjcPY-181" value="*prev" style="shape=partialRectangle;html=1;whiteSpace=wrap;connectable=0;overflow=hidden;fillColor=none;top=0;left=0;bottom=0;right=0;strokeColor=#D0CEE2;fontColor=#1A1A1A;" vertex="1" parent="4BsWTy4U4B5kvjyqjcPY-180">
          <mxGeometry width="40" height="40" as="geometry">
            <mxRectangle width="40" height="40" as="alternateBounds" />
          </mxGeometry>
        </mxCell>
        <mxCell id="4BsWTy4U4B5kvjyqjcPY-182" value="&lt;font color=&quot;#000000&quot;&gt;L3&lt;/font&gt;" style="shape=partialRectangle;html=1;whiteSpace=wrap;connectable=0;overflow=hidden;fillColor=none;top=0;left=0;bottom=0;right=0;strokeColor=#D0CEE2;fontColor=#1A1A1A;" vertex="1" parent="4BsWTy4U4B5kvjyqjcPY-180">
          <mxGeometry x="40" width="40" height="40" as="geometry">
            <mxRectangle width="40" height="40" as="alternateBounds" />
          </mxGeometry>
        </mxCell>
        <mxCell id="4BsWTy4U4B5kvjyqjcPY-183" value="*next" style="shape=partialRectangle;html=1;whiteSpace=wrap;connectable=0;overflow=hidden;fillColor=none;top=0;left=0;bottom=0;right=0;strokeColor=#D0CEE2;fontColor=#1A1A1A;" vertex="1" parent="4BsWTy4U4B5kvjyqjcPY-180">
          <mxGeometry x="80" width="40" height="40" as="geometry">
            <mxRectangle width="40" height="40" as="alternateBounds" />
          </mxGeometry>
        </mxCell>
        <mxCell id="4BsWTy4U4B5kvjyqjcPY-184" value="" style="endArrow=classic;html=1;rounded=1;sketch=0;fontColor=#FF0000;strokeColor=#09555B;curved=0;" edge="1" parent="1">
          <mxGeometry width="50" height="50" relative="1" as="geometry">
            <mxPoint x="1000.9099999999999" y="1550" as="sourcePoint" />
            <mxPoint x="1080.9099999999999" y="1550" as="targetPoint" />
            <Array as="points">
              <mxPoint x="1043.91" y="1550" />
              <mxPoint x="1080.91" y="1550" />
            </Array>
          </mxGeometry>
        </mxCell>
        <mxCell id="4BsWTy4U4B5kvjyqjcPY-185" value="" style="endArrow=classic;html=1;rounded=1;sketch=0;fontColor=#FF0000;strokeColor=#09555B;curved=0;entryX=1.011;entryY=0.754;entryDx=0;entryDy=0;entryPerimeter=0;" edge="1" parent="1">
          <mxGeometry width="50" height="50" relative="1" as="geometry">
            <mxPoint x="1079.6800000000003" y="1570" as="sourcePoint" />
            <mxPoint x="1001" y="1570.1599999999999" as="targetPoint" />
          </mxGeometry>
        </mxCell>
        <mxCell id="4BsWTy4U4B5kvjyqjcPY-186" value="&lt;pre style=&quot;background-color: #ffffff ; color: #000000 ; font-family: &amp;quot;jetbrains mono&amp;quot; , monospace ; font-size: 12.0pt&quot;&gt;&lt;span style=&quot;color: #5d6c79&quot;&gt;/**&lt;br&gt;&lt;/span&gt;&lt;span style=&quot;color: #5d6c79&quot;&gt; * &lt;/span&gt;&lt;span style=&quot;color: #5d6c79 ; font-family: &amp;quot;文泉驿等宽正黑&amp;quot; , monospace&quot;&gt;在两个已知的结点间插入一个新的结点。&lt;/span&gt;&lt;span style=&quot;color: #5d6c79&quot;&gt;&lt;br&gt;&lt;/span&gt;&lt;span style=&quot;color: #5d6c79&quot;&gt; *&lt;br&gt;&lt;/span&gt;&lt;span style=&quot;color: #5d6c79&quot;&gt; * &lt;/span&gt;&lt;span style=&quot;color: #5d6c79 ; font-family: &amp;quot;文泉驿等宽正黑&amp;quot; , monospace&quot;&gt;这仅适用于我们已经知道前驱或后继的内部链表操作。&lt;/span&gt;&lt;span style=&quot;color: #5d6c79&quot;&gt;&lt;br&gt;&lt;/span&gt;&lt;span style=&quot;color: #5d6c79&quot;&gt; */&lt;br&gt;&lt;/span&gt;&lt;span style=&quot;color: #9b2393 ; font-weight: bold&quot;&gt;static inline void &lt;/span&gt;&lt;span style=&quot;color: #0f68a0&quot;&gt;__list_add&lt;/span&gt;(&lt;span style=&quot;color: #9b2393 ; font-weight: bold&quot;&gt;struct &lt;/span&gt;&lt;span style=&quot;color: #008080&quot;&gt;list_head &lt;/span&gt;*&lt;span style=&quot;color: #9b2393 ; font-weight: bold&quot;&gt;new&lt;/span&gt;, &lt;span style=&quot;color: #9b2393 ; font-weight: bold&quot;&gt;struct &lt;/span&gt;&lt;span style=&quot;color: #008080&quot;&gt;list_head &lt;/span&gt;*prev,&lt;br&gt;                           &lt;span style=&quot;color: #9b2393 ; font-weight: bold&quot;&gt;struct &lt;/span&gt;&lt;span style=&quot;color: #008080&quot;&gt;list_head &lt;/span&gt;*next)&lt;br&gt;{&lt;br&gt;       next-&amp;gt;&lt;span style=&quot;color: #660e7a&quot;&gt;prev &lt;/span&gt;= &lt;span style=&quot;color: #9b2393 ; font-weight: bold&quot;&gt;new&lt;/span&gt;;&lt;br&gt;       &lt;span style=&quot;color: #9b2393 ; font-weight: bold&quot;&gt;new&lt;/span&gt;-&amp;gt;&lt;span style=&quot;color: #660e7a&quot;&gt;next &lt;/span&gt;= next;&lt;br&gt;       &lt;span style=&quot;color: #9b2393 ; font-weight: bold&quot;&gt;new&lt;/span&gt;-&amp;gt;&lt;span style=&quot;color: #660e7a&quot;&gt;prev &lt;/span&gt;= prev;&lt;br&gt;       prev-&amp;gt;&lt;span style=&quot;color: #660e7a&quot;&gt;next &lt;/span&gt;= &lt;span style=&quot;color: #9b2393 ; font-weight: bold&quot;&gt;new&lt;/span&gt;;&lt;br&gt;}&lt;br&gt;&lt;br&gt;&lt;span style=&quot;color: #5d6c79&quot;&gt;/**&lt;br&gt;&lt;/span&gt;&lt;span style=&quot;color: #5d6c79&quot;&gt; * &lt;/span&gt;&lt;span style=&quot;color: #5d6c79 ; font-family: &amp;quot;文泉驿等宽正黑&amp;quot; , monospace&quot;&gt;添加一个新的结点&lt;/span&gt;&lt;span style=&quot;color: #5d6c79&quot;&gt;&lt;br&gt;&lt;/span&gt;&lt;span style=&quot;color: #5d6c79&quot;&gt; * @param new &lt;/span&gt;&lt;span style=&quot;color: #5d6c79 ; font-family: &amp;quot;文泉驿等宽正黑&amp;quot; , monospace&quot;&gt;将被添加的新结点&lt;/span&gt;&lt;span style=&quot;color: #5d6c79&quot;&gt;&lt;br&gt;&lt;/span&gt;&lt;span style=&quot;color: #5d6c79&quot;&gt; * @param head &lt;/span&gt;&lt;span style=&quot;color: #5d6c79 ; font-family: &amp;quot;文泉驿等宽正黑&amp;quot; , monospace&quot;&gt;将要添加结点的链表头&lt;/span&gt;&lt;span style=&quot;color: #5d6c79&quot;&gt;&lt;br&gt;&lt;/span&gt;&lt;span style=&quot;color: #5d6c79&quot;&gt; *&lt;br&gt;&lt;/span&gt;&lt;span style=&quot;color: #5d6c79&quot;&gt; * &lt;/span&gt;&lt;span style=&quot;color: #5d6c79 ; font-family: &amp;quot;文泉驿等宽正黑&amp;quot; , monospace&quot;&gt;在指定的链表后插入一个新结点。这对实现堆栈有帮助。&lt;/span&gt;&lt;span style=&quot;color: #5d6c79&quot;&gt;&lt;br&gt;&lt;/span&gt;&lt;span style=&quot;color: #5d6c79&quot;&gt; */&lt;br&gt;&lt;/span&gt;&lt;span style=&quot;color: #9b2393 ; font-weight: bold&quot;&gt;static inline void &lt;/span&gt;&lt;span style=&quot;color: #0f68a0&quot;&gt;list_add&lt;/span&gt;(&lt;span style=&quot;color: #9b2393 ; font-weight: bold&quot;&gt;struct &lt;/span&gt;&lt;span style=&quot;color: #008080&quot;&gt;list_head &lt;/span&gt;*&lt;span style=&quot;color: #9b2393 ; font-weight: bold&quot;&gt;new&lt;/span&gt;, &lt;span style=&quot;color: #9b2393 ; font-weight: bold&quot;&gt;struct &lt;/span&gt;&lt;span style=&quot;color: #008080&quot;&gt;list_head &lt;/span&gt;*head)&lt;br&gt;{&lt;br&gt;       &lt;span style=&quot;color: #326d74&quot;&gt;__list_add&lt;/span&gt;(&lt;span style=&quot;color: #9b2393 ; font-weight: bold&quot;&gt;new&lt;/span&gt;, head, head-&amp;gt;&lt;span style=&quot;color: #660e7a&quot;&gt;next&lt;/span&gt;);&lt;br&gt;}&lt;/pre&gt;" style="text;whiteSpace=wrap;html=1;fontColor=#000000;" vertex="1" parent="1">
          <mxGeometry x="80" y="240" width="640" height="520" as="geometry" />
        </mxCell>
      </root>
    </mxGraphModel>
  </diagram>
</mxfile>
